<svg width="77" height="70" viewBox="0 0 77 70" fill="none" xmlns="http://www.w3.org/2000/svg">
<path d="M11.3297 31.2597C-0.0703278 37.8397 -2.82034 47.5198 3.06966 55.5898C4.93966 58.1598 7.69967 60.5697 11.3297 62.6697C20.8297 68.1597 34.0696 70.1697 46.3097 68.7097L51.8797 26.1397C38.2297 23.2297 22.2897 24.9297 11.3297 31.2597Z" fill="#371680"/>
<path d="M65.7293 31.2598C61.6693 28.9198 56.9393 27.2198 51.8893 26.1398L46.3193 68.7098C47.9293 68.5198 49.5194 68.2698 51.0894 67.9598C56.4394 66.8998 61.4693 65.1298 65.7393 62.6698C80.7494 53.9998 80.7493 39.9398 65.7293 31.2598Z" fill="#547217"/>
<path d="M38.7197 23.1798L64.2797 6.52979V31.2898L38.7197 47.9398V23.1798Z" fill="#705C9C"/>
<path d="M38.7196 23.1797H0.0595703V47.9397H38.7196V23.1797Z" fill="#371680"/>
<path d="M50.8297 47.9397L38.7197 27.2297V51.9997L51.0797 52.6198L50.8297 47.9397Z" fill="#547217"/>
<path d="M76.9996 26.8997L64.6396 21.5897V46.3497L76.9996 46.9697V26.8997Z" fill="#547217"/>
<path d="M65.7295 42.5997C61.3895 45.1097 56.2795 46.8797 50.8295 47.9297L38.7295 27.1797L64.2895 10.5397L64.3995 10.4697C64.8495 10.6997 65.2995 10.9397 65.7295 11.1997C80.7495 19.8697 80.7495 33.9297 65.7295 42.5997Z" fill="#A0C74F"/>
<path d="M64.2797 6.52974L38.7197 23.1698L3.37968 32.0498C-2.91032 23.8998 -0.260308 14.0097 11.3297 7.31975C25.8697 -1.08025 49.1897 -1.34026 64.2797 6.52974Z" fill="url(#paint0_linear_526_11010)"/>
<path d="M51.0793 52.6198V67.9698C37.6093 70.6498 22.0793 68.8898 11.3293 62.6798C7.69935 60.5898 4.94934 58.1798 3.06934 55.5998V40.2498L51.0793 52.6198Z" fill="#7A7876"/>
<path d="M51.0793 52.6197C37.6093 55.2897 22.0793 53.5297 11.3293 47.3197C7.69935 45.2297 4.94934 42.8197 3.06934 40.2397L38.7193 31.4197L50.8193 52.1697L51.0793 52.6197Z" fill="#A2A2A2"/>
<defs>
<linearGradient id="paint0_linear_526_11010" x1="51.5" y1="4.99991" x2="15.5" y2="23.4999" gradientUnits="userSpaceOnUse">
<stop stop-color="#A288DB"/>
<stop offset="1" stop-color="#745AAC"/>
</linearGradient>
</defs>
</svg>
