<svg width="1692" height="853" viewBox="0 0 1692 853" fill="none" xmlns="http://www.w3.org/2000/svg">
<g opacity="0.6" filter="url(#filter0_f_526_10746)">
<path d="M1291.28 795.018L1285.14 780.184C1285.4 780.951 1285.66 781.718 1285.91 782.23C1285.91 782.485 1285.91 782.741 1286.17 782.997C1286.42 783.508 1286.42 784.02 1286.42 784.532C1286.42 784.787 1286.42 785.043 1286.68 785.299C1286.68 785.81 1286.93 786.322 1286.93 786.833C1286.93 787.089 1286.93 787.345 1286.93 787.856C1286.93 788.368 1286.93 789.135 1286.93 789.647C1286.93 789.903 1286.93 790.158 1286.93 790.414C1286.93 791.437 1286.68 792.204 1286.68 793.227C1286.68 793.483 1286.68 793.739 1286.42 793.995C1286.17 795.018 1285.91 796.041 1285.66 797.32C1285.66 797.575 1285.66 797.575 1285.4 797.831C1285.14 798.854 1284.63 800.133 1284.12 801.156C1283.87 801.412 1283.87 801.923 1283.61 802.179C1283.35 802.946 1282.84 803.714 1282.33 804.481C1282.08 804.993 1281.82 805.248 1281.56 805.76C1281.05 806.527 1280.54 807.294 1280.03 808.062C1279.77 808.317 1279.52 808.829 1279.26 809.085C1278.49 810.108 1277.98 810.875 1277.22 811.642C1276.96 811.898 1276.96 811.898 1276.96 812.154C1276.19 813.177 1275.17 814.2 1274.15 815.223C1273.89 815.479 1273.64 815.735 1273.38 815.99C1272.61 816.758 1271.84 817.525 1271.08 818.036C1270.82 818.292 1270.31 818.548 1270.05 819.059C1269.54 819.571 1268.78 820.082 1268.01 820.594C1267.24 821.106 1266.47 821.873 1265.71 822.384C1265.19 822.896 1264.43 823.152 1263.92 823.663C1263.4 824.175 1262.64 824.43 1262.13 824.686C1261.36 825.198 1260.59 825.709 1259.82 825.965C1259.31 826.221 1258.8 826.477 1258.29 826.732C1257.52 827.244 1256.5 827.755 1255.73 828.011C1255.22 828.267 1254.96 828.523 1254.45 828.778C1253.43 829.29 1252.41 829.801 1251.38 830.057C1251.13 830.057 1250.87 830.313 1250.62 830.313C1249.34 830.824 1247.8 831.336 1246.52 831.848C1246.27 831.848 1245.76 832.103 1245.5 832.103C1244.48 832.359 1243.46 832.871 1242.43 833.126C1241.92 833.382 1241.41 833.382 1240.9 833.638C1239.87 833.894 1239.11 834.149 1238.08 834.149C1237.57 834.149 1237.06 834.405 1236.29 834.405C1235.53 834.661 1234.5 834.661 1233.74 834.917C1232.97 834.917 1232.2 835.172 1231.43 835.172C1229.9 835.428 1228.62 835.428 1227.09 835.428C1225.55 835.428 1224.27 835.428 1222.74 835.428C1221.72 835.428 1220.95 835.428 1219.93 835.172C1218.9 835.172 1217.88 834.917 1216.86 834.661C1216.09 834.405 1215.07 834.405 1214.3 834.149C1213.28 833.894 1212.51 833.638 1211.48 833.382C1210.72 833.126 1209.95 832.871 1209.18 832.615C1208.16 832.359 1207.39 831.848 1206.63 831.592C1205.86 831.336 1205.35 831.08 1204.58 830.824C1203.81 830.313 1203.04 829.801 1202.28 829.546C1201.77 829.29 1201 828.778 1200.49 828.523C1199.72 828.011 1199.21 827.5 1198.44 826.732C1197.93 826.221 1197.42 825.965 1197.16 825.453C1196.39 824.686 1195.88 823.919 1195.37 823.152C1195.12 822.64 1194.6 822.384 1194.35 822.129C1193.58 820.85 1192.81 819.827 1192.3 818.292L1198.44 833.126C1215.17 874.956 1311.25 834.961 1291.28 795.018Z" fill="url(#paint0_radial_526_10746)"/>
<path d="M1250.36 763.559C1276.19 762.536 1291.79 778.137 1285.14 798.087C1278.49 818.036 1252.4 835.172 1226.57 835.94C1200.74 836.963 1185.14 821.361 1191.79 801.412C1198.18 781.462 1224.52 764.582 1250.36 763.559Z" fill="#F0F0F0"/>
<path d="M1250.1 763.048C1275.93 762.025 1291.54 777.626 1284.89 797.575C1278.24 817.525 1252.15 834.661 1226.32 835.428C1200.48 836.451 1184.88 820.85 1191.53 800.9C1197.93 780.951 1224.27 763.815 1250.1 763.048Z" fill="url(#paint1_radial_526_10746)"/>
<path d="M1280.28 773.278L1191.28 817.781C1191.79 819.315 1192.56 820.594 1193.32 822.129L1283.1 777.115C1282.33 775.58 1281.31 774.301 1280.28 773.278Z" fill="url(#paint2_linear_526_10746)"/>
</g>
<g opacity="0.8" filter="url(#filter1_f_526_10746)">
<path d="M672.053 85.0879L675.321 77.2075C675.129 77.5919 674.936 77.9763 674.84 78.2646C674.744 78.3607 674.648 78.4568 674.648 78.649C674.552 78.9373 674.36 79.1295 674.168 79.3217C674.072 79.4178 673.975 79.5139 673.975 79.7061C673.783 79.8983 673.687 80.1866 673.495 80.3789C673.399 80.475 673.303 80.5711 673.11 80.7633C672.918 80.9555 672.63 81.2438 672.438 81.436C672.342 81.5321 672.246 81.6282 672.149 81.7243C671.765 82.1087 671.381 82.3009 670.996 82.6853C670.9 82.7814 670.804 82.8775 670.612 82.8775C670.131 83.1658 669.651 83.4541 669.074 83.8386C668.978 83.9347 668.978 83.9347 668.786 83.9347C668.305 84.223 667.633 84.5113 667.056 84.7035C666.864 84.7035 666.672 84.8957 666.479 84.8957C666.095 85.0879 665.614 85.184 665.134 85.2801C664.846 85.3762 664.653 85.3762 664.365 85.4723C663.885 85.5684 663.404 85.6645 662.924 85.7606C662.731 85.7606 662.443 85.8567 662.251 85.8567C661.578 85.9528 661.098 86.0489 660.521 86.0489C660.329 86.0489 660.329 86.0489 660.233 86.145C659.56 86.2411 658.791 86.2411 658.022 86.2411C657.83 86.2411 657.638 86.2411 657.446 86.2411C656.869 86.2411 656.293 86.2411 655.812 86.145C655.62 86.145 655.331 86.0489 655.043 86.145C654.659 86.145 654.178 86.0489 653.698 85.9528C653.217 85.8567 652.641 85.8567 652.16 85.7606C651.776 85.7606 651.391 85.5684 651.007 85.5684C650.622 85.5684 650.238 85.3762 649.95 85.2801C649.469 85.184 648.989 85.0879 648.604 84.8957C648.316 84.7996 648.028 84.7035 647.739 84.6074C647.259 84.5113 646.682 84.3191 646.298 84.1269C646.01 84.0308 645.817 84.0308 645.529 83.9347C644.952 83.7425 644.376 83.5503 643.895 83.2619C643.799 83.1658 643.607 83.1658 643.511 83.0697C642.838 82.7814 642.069 82.397 641.397 82.1087C641.3 82.0126 641.012 81.9165 640.916 81.8204C640.436 81.5321 639.859 81.3399 639.378 81.0516C639.09 80.9555 638.898 80.7633 638.61 80.6672C638.129 80.3789 637.745 80.1867 637.36 79.8022C637.168 79.61 636.88 79.5139 636.591 79.2256C636.207 79.0334 635.823 78.649 635.438 78.4568C635.15 78.1685 634.765 77.9763 634.477 77.688C633.804 77.2075 633.324 76.7269 632.747 76.1503C632.171 75.5737 631.69 75.0932 631.114 74.5166C630.729 74.1322 630.441 73.8439 630.153 73.3634C629.768 72.9789 629.48 72.4984 629.192 72.0179C628.999 71.6335 628.615 71.2491 628.423 70.8647C628.134 70.3842 627.942 69.9998 627.654 69.5192C627.462 69.1348 627.269 68.7504 627.077 68.366C626.789 67.8855 626.693 67.405 626.501 67.0206C626.308 66.6362 626.212 66.3479 626.02 65.9634C625.924 65.4829 625.828 65.0024 625.636 64.618C625.54 64.3297 625.444 63.8492 625.347 63.5609C625.251 63.0804 625.251 62.6959 625.251 62.1193C625.251 61.7349 625.155 61.4466 625.251 61.1583C625.251 60.5817 625.347 60.1012 625.444 59.6207C625.54 59.3323 625.444 59.044 625.444 58.8518C625.636 58.083 625.732 57.4103 626.116 56.6415L622.849 64.5219C613.418 86.5266 664.549 107.601 672.053 85.0879Z" fill="url(#paint3_radial_526_10746)"/>
<path d="M668.495 57.8894C678.586 67.2114 678.586 78.9359 668.592 83.9332C658.597 88.9306 642.355 85.567 632.361 76.1489C622.27 66.8269 622.27 55.1024 632.265 50.105C642.163 45.0116 658.405 48.5674 668.495 57.8894Z" fill="#F0F0F0"/>
<path d="M668.591 57.6015C678.682 66.9235 678.682 78.648 668.687 83.6454C658.693 88.6427 642.451 85.2791 632.457 75.8611C622.366 66.5391 622.366 54.8145 632.36 49.8172C642.259 44.7237 658.596 48.1835 668.591 57.6015Z" fill="url(#paint4_radial_526_10746)"/>
<path d="M676.088 72.7858L625.923 56.0639C625.538 56.8327 625.346 57.6016 625.058 58.4665L675.704 75.2845C675.992 74.4196 676.088 73.5546 676.088 72.7858Z" fill="url(#paint5_linear_526_10746)"/>
</g>
<g filter="url(#filter2_f_526_10746)">
<rect x="61.4541" y="305.155" width="2.51948" height="18.7127" transform="rotate(30 61.4541 305.155)" fill="url(#paint6_linear_526_10746)"/>
<rect x="23.6104" y="316.671" width="2.51948" height="15.8331" transform="rotate(-48 23.6104 316.671)" fill="url(#paint7_linear_526_10746)"/>
<rect x="59.375" y="339.523" width="2.51948" height="24.1721" transform="rotate(-74 59.375 339.523)" fill="url(#paint8_linear_526_10746)"/>
<rect x="48.7461" y="346.208" width="2.51948" height="24.1721" transform="rotate(-5 48.7461 346.208)" fill="url(#paint9_linear_526_10746)"/>
<rect x="35.4131" y="339.688" width="2.51948" height="18.6043" transform="rotate(58 35.4131 339.688)" fill="url(#paint10_linear_526_10746)"/>
<circle cx="47.3503" cy="333.39" r="13.8571" fill="url(#paint11_radial_526_10746)"/>
<circle cx="12.0779" cy="354.805" r="10.0779" fill="url(#paint12_radial_526_10746)"/>
<circle cx="53.6492" cy="380" r="10.0779" fill="url(#paint13_radial_526_10746)"/>
<circle cx="90.1815" cy="345.987" r="8.81818" fill="url(#paint14_radial_526_10746)"/>
<circle cx="17.117" cy="309.454" r="10.0779" fill="url(#paint15_radial_526_10746)"/>
<circle cx="68.7663" cy="295.597" r="12.5974" fill="url(#paint16_radial_526_10746)"/>
</g>
<g filter="url(#filter3_f_526_10746)">
<rect x="969.647" y="590.331" width="2.1039" height="15.6261" transform="rotate(30 969.647 590.331)" fill="url(#paint17_linear_526_10746)"/>
<rect x="938.046" y="599.948" width="2.1039" height="13.2214" transform="rotate(-48 938.046 599.948)" fill="url(#paint18_linear_526_10746)"/>
<rect x="967.911" y="619.031" width="2.1039" height="20.185" transform="rotate(-74 967.911 619.031)" fill="url(#paint19_linear_526_10746)"/>
<rect x="959.035" y="624.613" width="2.1039" height="20.185" transform="rotate(-5 959.035 624.613)" fill="url(#paint20_linear_526_10746)"/>
<rect x="947.901" y="619.169" width="2.1039" height="15.5355" transform="rotate(58 947.901 619.169)" fill="url(#paint21_linear_526_10746)"/>
<circle cx="957.87" cy="613.909" r="11.5714" fill="url(#paint22_radial_526_10746)"/>
<circle cx="928.416" cy="631.792" r="8.41558" fill="url(#paint23_radial_526_10746)"/>
<circle cx="963.129" cy="652.831" r="8.41558" fill="url(#paint24_radial_526_10746)"/>
<circle cx="993.636" cy="624.429" r="7.36364" fill="url(#paint25_radial_526_10746)"/>
<circle cx="932.624" cy="593.922" r="8.41558" fill="url(#paint26_radial_526_10746)"/>
<circle cx="975.753" cy="582.351" r="10.5195" fill="url(#paint27_radial_526_10746)"/>
</g>
<g filter="url(#filter4_f_526_10746)">
<rect x="1463.62" y="32.1095" width="1.84416" height="13.6969" transform="rotate(-30 1463.62 32.1095)" fill="url(#paint28_linear_526_10746)"/>
<rect x="1457.06" y="60.3132" width="1.84416" height="11.5892" transform="rotate(-108 1457.06 60.3132)" fill="url(#paint29_linear_526_10746)"/>
<rect x="1484.64" y="46.0051" width="1.84416" height="17.693" transform="rotate(-134 1484.64 46.0051)" fill="url(#paint30_linear_526_10746)"/>
<rect x="1484.99" y="55.1893" width="1.84416" height="17.693" transform="rotate(-65 1484.99 55.1893)" fill="url(#paint31_linear_526_10746)"/>
<rect x="1475.97" y="61.2555" width="1.84416" height="13.6176" transform="rotate(-2 1475.97 61.2555)" fill="url(#paint32_linear_526_10746)"/>
<circle cx="1476.35" cy="51.3821" r="10.1429" transform="rotate(-60 1476.35 51.3821)" fill="url(#paint33_radial_526_10746)"/>
<circle cx="1477.02" cy="81.5794" r="7.37662" transform="rotate(-60 1477.02 81.5794)" fill="url(#paint34_radial_526_10746)"/>
<circle cx="1508.2" cy="64.4477" r="7.37662" transform="rotate(-60 1508.2 64.4477)" fill="url(#paint35_radial_526_10746)"/>
<circle cx="1500.01" cy="28.8427" r="6.45454" transform="rotate(-60 1500.01 28.8427)" fill="url(#paint36_radial_526_10746)"/>
<circle cx="1450.11" cy="61.7878" r="7.37662" transform="rotate(-60 1450.11 61.7878)" fill="url(#paint37_radial_526_10746)"/>
<circle cx="1460.23" cy="23.9766" r="9.22078" transform="rotate(-60 1460.23 23.9766)" fill="url(#paint38_radial_526_10746)"/>
</g>
<g filter="url(#filter5_f_526_10746)">
<ellipse cx="280.5" cy="80" rx="7.5" ry="8" fill="white"/>
</g>
<g filter="url(#filter6_f_526_10746)">
<ellipse cx="1674.31" cy="634.678" rx="7.5" ry="8" transform="rotate(150 1674.31 634.678)" fill="white"/>
</g>
<g filter="url(#filter7_f_526_10746)">
<ellipse cx="317.5" cy="88" rx="5.5" ry="5" fill="white"/>
</g>
<g filter="url(#filter8_f_526_10746)">
<ellipse cx="1638.26" cy="646.25" rx="5.5" ry="5" transform="rotate(150 1638.26 646.25)" fill="white"/>
</g>
<defs>
<filter id="filter0_f_526_10746" x="1188" y="761" width="108.001" height="91.8914" filterUnits="userSpaceOnUse" color-interpolation-filters="sRGB">
<feFlood flood-opacity="0" result="BackgroundImageFix"/>
<feBlend mode="normal" in="SourceGraphic" in2="BackgroundImageFix" result="shape"/>
<feGaussianBlur stdDeviation="1" result="effect1_foregroundBlur_526_10746"/>
</filter>
<filter id="filter1_f_526_10746" x="619.692" y="45.4688" width="58.4785" height="51.2651" filterUnits="userSpaceOnUse" color-interpolation-filters="sRGB">
<feFlood flood-opacity="0" result="BackgroundImageFix"/>
<feBlend mode="normal" in="SourceGraphic" in2="BackgroundImageFix" result="shape"/>
<feGaussianBlur stdDeviation="1" result="effect1_foregroundBlur_526_10746"/>
</filter>
<filter id="filter2_f_526_10746" x="0" y="281" width="101" height="111.078" filterUnits="userSpaceOnUse" color-interpolation-filters="sRGB">
<feFlood flood-opacity="0" result="BackgroundImageFix"/>
<feBlend mode="normal" in="SourceGraphic" in2="BackgroundImageFix" result="shape"/>
<feGaussianBlur stdDeviation="1" result="effect1_foregroundBlur_526_10746"/>
</filter>
<filter id="filter3_f_526_10746" x="918" y="569.831" width="85" height="93.4156" filterUnits="userSpaceOnUse" color-interpolation-filters="sRGB">
<feFlood flood-opacity="0" result="BackgroundImageFix"/>
<feBlend mode="normal" in="SourceGraphic" in2="BackgroundImageFix" result="shape"/>
<feGaussianBlur stdDeviation="1" result="effect1_foregroundBlur_526_10746"/>
</filter>
<filter id="filter4_f_526_10746" x="1438.74" y="10.7543" width="80.8438" height="82.203" filterUnits="userSpaceOnUse" color-interpolation-filters="sRGB">
<feFlood flood-opacity="0" result="BackgroundImageFix"/>
<feBlend mode="normal" in="SourceGraphic" in2="BackgroundImageFix" result="shape"/>
<feGaussianBlur stdDeviation="2" result="effect1_foregroundBlur_526_10746"/>
</filter>
<filter id="filter5_f_526_10746" x="263" y="62" width="35" height="36" filterUnits="userSpaceOnUse" color-interpolation-filters="sRGB">
<feFlood flood-opacity="0" result="BackgroundImageFix"/>
<feBlend mode="normal" in="SourceGraphic" in2="BackgroundImageFix" result="shape"/>
<feGaussianBlur stdDeviation="5" result="effect1_foregroundBlur_526_10746"/>
</filter>
<filter id="filter6_f_526_10746" x="1656.68" y="616.799" width="35.2578" height="35.759" filterUnits="userSpaceOnUse" color-interpolation-filters="sRGB">
<feFlood flood-opacity="0" result="BackgroundImageFix"/>
<feBlend mode="normal" in="SourceGraphic" in2="BackgroundImageFix" result="shape"/>
<feGaussianBlur stdDeviation="5" result="effect1_foregroundBlur_526_10746"/>
</filter>
<filter id="filter7_f_526_10746" x="306" y="77" width="23" height="22" filterUnits="userSpaceOnUse" color-interpolation-filters="sRGB">
<feFlood flood-opacity="0" result="BackgroundImageFix"/>
<feBlend mode="normal" in="SourceGraphic" in2="BackgroundImageFix" result="shape"/>
<feGaussianBlur stdDeviation="3" result="effect1_foregroundBlur_526_10746"/>
</filter>
<filter id="filter8_f_526_10746" x="1626.88" y="635.12" width="22.7607" height="22.2604" filterUnits="userSpaceOnUse" color-interpolation-filters="sRGB">
<feFlood flood-opacity="0" result="BackgroundImageFix"/>
<feBlend mode="normal" in="SourceGraphic" in2="BackgroundImageFix" result="shape"/>
<feGaussianBlur stdDeviation="3" result="effect1_foregroundBlur_526_10746"/>
</filter>
<radialGradient id="paint0_radial_526_10746" cx="0" cy="0" r="1" gradientUnits="userSpaceOnUse" gradientTransform="translate(1256.31 786.714) scale(80.1599)">
<stop offset="0.1091" stop-color="white"/>
<stop offset="0.9152" stop-color="#F8F8F8"/>
</radialGradient>
<radialGradient id="paint1_radial_526_10746" cx="0" cy="0" r="1" gradientUnits="userSpaceOnUse" gradientTransform="translate(1226.94 749.471) scale(123.046)">
<stop offset="0.1091" stop-color="white"/>
<stop offset="0.541214" stop-color="#F7F8F8"/>
<stop offset="0.873602" stop-color="white"/>
</radialGradient>
<linearGradient id="paint2_linear_526_10746" x1="1240.9" y1="804.378" x2="1235.22" y2="793.726" gradientUnits="userSpaceOnUse">
<stop offset="0.0121212" stop-color="white"/>
<stop offset="0.9152" stop-color="#EDEDED"/>
</linearGradient>
<radialGradient id="paint3_radial_526_10746" cx="0" cy="0" r="1" gradientUnits="userSpaceOnUse" gradientTransform="translate(662.031 68.8256) rotate(45) scale(42.5963)">
<stop offset="0.1091" stop-color="white"/>
<stop offset="0.9152" stop-color="#F8F8F8"/>
</radialGradient>
<radialGradient id="paint4_radial_526_10746" cx="0" cy="0" r="1" gradientUnits="userSpaceOnUse" gradientTransform="translate(664.988 43.796) rotate(45) scale(65.3858)">
<stop offset="0.1091" stop-color="white"/>
<stop offset="0.541214" stop-color="#F7F8F8"/>
<stop offset="0.873602" stop-color="white"/>
</radialGradient>
<linearGradient id="paint5_linear_526_10746" x1="649.606" y1="69.6745" x2="651.473" y2="63.5374" gradientUnits="userSpaceOnUse">
<stop offset="0.0121212" stop-color="white"/>
<stop offset="0.9152" stop-color="#EDEDED"/>
</linearGradient>
<linearGradient id="paint6_linear_526_10746" x1="61.7042" y1="315.576" x2="64.0586" y2="315.448" gradientUnits="userSpaceOnUse">
<stop stop-color="white" stop-opacity="0"/>
<stop offset="0.618379" stop-color="white"/>
<stop offset="1" stop-color="white" stop-opacity="0"/>
</linearGradient>
<linearGradient id="paint7_linear_526_10746" x1="23.8605" y1="325.489" x2="26.2121" y2="325.337" gradientUnits="userSpaceOnUse">
<stop stop-color="white" stop-opacity="0"/>
<stop offset="0.618379" stop-color="white"/>
<stop offset="1" stop-color="white" stop-opacity="0"/>
</linearGradient>
<linearGradient id="paint8_linear_526_10746" x1="59.6251" y1="352.986" x2="61.9823" y2="352.886" gradientUnits="userSpaceOnUse">
<stop stop-color="white" stop-opacity="0"/>
<stop offset="0.618379" stop-color="white"/>
<stop offset="1" stop-color="white" stop-opacity="0"/>
</linearGradient>
<linearGradient id="paint9_linear_526_10746" x1="48.9962" y1="359.67" x2="51.3534" y2="359.57" gradientUnits="userSpaceOnUse">
<stop stop-color="white" stop-opacity="0"/>
<stop offset="0.618379" stop-color="white"/>
<stop offset="1" stop-color="white" stop-opacity="0"/>
</linearGradient>
<linearGradient id="paint10_linear_526_10746" x1="35.6632" y1="350.05" x2="38.0175" y2="349.92" gradientUnits="userSpaceOnUse">
<stop stop-color="white" stop-opacity="0"/>
<stop offset="0.618379" stop-color="white"/>
<stop offset="1" stop-color="white" stop-opacity="0"/>
</linearGradient>
<radialGradient id="paint11_radial_526_10746" cx="0" cy="0" r="1" gradientUnits="userSpaceOnUse" gradientTransform="translate(50.1217 330.618) rotate(99.4623) scale(16.8579)">
<stop stop-color="white"/>
<stop offset="1" stop-color="white" stop-opacity="0.5"/>
</radialGradient>
<radialGradient id="paint12_radial_526_10746" cx="0" cy="0" r="1" gradientUnits="userSpaceOnUse" gradientTransform="translate(14.0935 352.79) rotate(99.4623) scale(12.2603)">
<stop stop-color="white"/>
<stop offset="1" stop-color="white" stop-opacity="0.5"/>
</radialGradient>
<radialGradient id="paint13_radial_526_10746" cx="0" cy="0" r="1" gradientUnits="userSpaceOnUse" gradientTransform="translate(55.6648 377.984) rotate(99.4623) scale(12.2603)">
<stop stop-color="white"/>
<stop offset="1" stop-color="white" stop-opacity="0.5"/>
</radialGradient>
<radialGradient id="paint14_radial_526_10746" cx="0" cy="0" r="1" gradientUnits="userSpaceOnUse" gradientTransform="translate(91.9451 344.223) rotate(99.4623) scale(10.7278)">
<stop stop-color="white"/>
<stop offset="1" stop-color="white" stop-opacity="0.5"/>
</radialGradient>
<radialGradient id="paint15_radial_526_10746" cx="0" cy="0" r="1" gradientUnits="userSpaceOnUse" gradientTransform="translate(19.1326 307.439) rotate(99.4623) scale(12.2603)">
<stop stop-color="white"/>
<stop offset="1" stop-color="white" stop-opacity="0.5"/>
</radialGradient>
<radialGradient id="paint16_radial_526_10746" cx="0" cy="0" r="1" gradientUnits="userSpaceOnUse" gradientTransform="translate(71.2858 293.078) rotate(99.4623) scale(15.3254)">
<stop stop-color="white"/>
<stop offset="1" stop-color="white" stop-opacity="0.5"/>
</radialGradient>
<linearGradient id="paint17_linear_526_10746" x1="969.856" y1="599.034" x2="971.822" y2="598.926" gradientUnits="userSpaceOnUse">
<stop stop-color="white" stop-opacity="0"/>
<stop offset="0.618379" stop-color="white"/>
<stop offset="1" stop-color="white" stop-opacity="0"/>
</linearGradient>
<linearGradient id="paint18_linear_526_10746" x1="938.255" y1="607.311" x2="940.218" y2="607.184" gradientUnits="userSpaceOnUse">
<stop stop-color="white" stop-opacity="0"/>
<stop offset="0.618379" stop-color="white"/>
<stop offset="1" stop-color="white" stop-opacity="0"/>
</linearGradient>
<linearGradient id="paint19_linear_526_10746" x1="968.12" y1="630.273" x2="970.088" y2="630.189" gradientUnits="userSpaceOnUse">
<stop stop-color="white" stop-opacity="0"/>
<stop offset="0.618379" stop-color="white"/>
<stop offset="1" stop-color="white" stop-opacity="0"/>
</linearGradient>
<linearGradient id="paint20_linear_526_10746" x1="959.244" y1="635.855" x2="961.212" y2="635.771" gradientUnits="userSpaceOnUse">
<stop stop-color="white" stop-opacity="0"/>
<stop offset="0.618379" stop-color="white"/>
<stop offset="1" stop-color="white" stop-opacity="0"/>
</linearGradient>
<linearGradient id="paint21_linear_526_10746" x1="948.11" y1="627.821" x2="950.076" y2="627.713" gradientUnits="userSpaceOnUse">
<stop stop-color="white" stop-opacity="0"/>
<stop offset="0.618379" stop-color="white"/>
<stop offset="1" stop-color="white" stop-opacity="0"/>
</linearGradient>
<radialGradient id="paint22_radial_526_10746" cx="0" cy="0" r="1" gradientUnits="userSpaceOnUse" gradientTransform="translate(960.185 611.595) rotate(99.4623) scale(14.0772)">
<stop stop-color="white"/>
<stop offset="1" stop-color="white" stop-opacity="0.5"/>
</radialGradient>
<radialGradient id="paint23_radial_526_10746" cx="0" cy="0" r="1" gradientUnits="userSpaceOnUse" gradientTransform="translate(930.099 630.109) rotate(99.4623) scale(10.238)">
<stop stop-color="white"/>
<stop offset="1" stop-color="white" stop-opacity="0.5"/>
</radialGradient>
<radialGradient id="paint24_radial_526_10746" cx="0" cy="0" r="1" gradientUnits="userSpaceOnUse" gradientTransform="translate(964.813 651.148) rotate(99.4623) scale(10.238)">
<stop stop-color="white"/>
<stop offset="1" stop-color="white" stop-opacity="0.5"/>
</radialGradient>
<radialGradient id="paint25_radial_526_10746" cx="0" cy="0" r="1" gradientUnits="userSpaceOnUse" gradientTransform="translate(995.109 622.956) rotate(99.4623) scale(8.95825)">
<stop stop-color="white"/>
<stop offset="1" stop-color="white" stop-opacity="0.5"/>
</radialGradient>
<radialGradient id="paint26_radial_526_10746" cx="0" cy="0" r="1" gradientUnits="userSpaceOnUse" gradientTransform="translate(934.307 592.239) rotate(99.4623) scale(10.238)">
<stop stop-color="white"/>
<stop offset="1" stop-color="white" stop-opacity="0.5"/>
</radialGradient>
<radialGradient id="paint27_radial_526_10746" cx="0" cy="0" r="1" gradientUnits="userSpaceOnUse" gradientTransform="translate(977.857 580.247) rotate(99.4623) scale(12.7975)">
<stop stop-color="white"/>
<stop offset="1" stop-color="white" stop-opacity="0.5"/>
</radialGradient>
<linearGradient id="paint28_linear_526_10746" x1="1463.8" y1="39.7377" x2="1465.52" y2="39.6435" gradientUnits="userSpaceOnUse">
<stop stop-color="white" stop-opacity="0"/>
<stop offset="0.618379" stop-color="white"/>
<stop offset="1" stop-color="white" stop-opacity="0"/>
</linearGradient>
<linearGradient id="paint29_linear_526_10746" x1="1457.25" y1="66.7676" x2="1458.97" y2="66.6563" gradientUnits="userSpaceOnUse">
<stop stop-color="white" stop-opacity="0"/>
<stop offset="0.618379" stop-color="white"/>
<stop offset="1" stop-color="white" stop-opacity="0"/>
</linearGradient>
<linearGradient id="paint30_linear_526_10746" x1="1484.82" y1="55.8589" x2="1486.55" y2="55.7858" gradientUnits="userSpaceOnUse">
<stop stop-color="white" stop-opacity="0"/>
<stop offset="0.618379" stop-color="white"/>
<stop offset="1" stop-color="white" stop-opacity="0"/>
</linearGradient>
<linearGradient id="paint31_linear_526_10746" x1="1485.17" y1="65.0431" x2="1486.9" y2="64.97" gradientUnits="userSpaceOnUse">
<stop stop-color="white" stop-opacity="0"/>
<stop offset="0.618379" stop-color="white"/>
<stop offset="1" stop-color="white" stop-opacity="0"/>
</linearGradient>
<linearGradient id="paint32_linear_526_10746" x1="1476.16" y1="68.8395" x2="1477.88" y2="68.7447" gradientUnits="userSpaceOnUse">
<stop stop-color="white" stop-opacity="0"/>
<stop offset="0.618379" stop-color="white"/>
<stop offset="1" stop-color="white" stop-opacity="0"/>
</linearGradient>
<radialGradient id="paint33_radial_526_10746" cx="0" cy="0" r="1" gradientUnits="userSpaceOnUse" gradientTransform="translate(1478.38 49.3535) rotate(99.4623) scale(12.3393)">
<stop stop-color="white"/>
<stop offset="1" stop-color="white" stop-opacity="0.5"/>
</radialGradient>
<radialGradient id="paint34_radial_526_10746" cx="0" cy="0" r="1" gradientUnits="userSpaceOnUse" gradientTransform="translate(1478.49 80.1041) rotate(99.4623) scale(8.97405)">
<stop stop-color="white"/>
<stop offset="1" stop-color="white" stop-opacity="0.5"/>
</radialGradient>
<radialGradient id="paint35_radial_526_10746" cx="0" cy="0" r="1" gradientUnits="userSpaceOnUse" gradientTransform="translate(1509.68 62.9723) rotate(99.4623) scale(8.97405)">
<stop stop-color="white"/>
<stop offset="1" stop-color="white" stop-opacity="0.5"/>
</radialGradient>
<radialGradient id="paint36_radial_526_10746" cx="0" cy="0" r="1" gradientUnits="userSpaceOnUse" gradientTransform="translate(1501.3 27.5518) rotate(99.4623) scale(7.85229)">
<stop stop-color="white"/>
<stop offset="1" stop-color="white" stop-opacity="0.5"/>
</radialGradient>
<radialGradient id="paint37_radial_526_10746" cx="0" cy="0" r="1" gradientUnits="userSpaceOnUse" gradientTransform="translate(1451.59 60.3124) rotate(99.4623) scale(8.97405)">
<stop stop-color="white"/>
<stop offset="1" stop-color="white" stop-opacity="0.5"/>
</radialGradient>
<radialGradient id="paint38_radial_526_10746" cx="0" cy="0" r="1" gradientUnits="userSpaceOnUse" gradientTransform="translate(1462.08 22.1325) rotate(99.4623) scale(11.2176)">
<stop stop-color="white"/>
<stop offset="1" stop-color="white" stop-opacity="0.5"/>
</radialGradient>
</defs>
</svg>
