<svg width="60" height="60" viewBox="0 0 60 60" fill="none" xmlns="http://www.w3.org/2000/svg">
<path d="M7.5 19C7.5 17.1144 7.5 16.1716 8.08579 15.5858C8.67157 15 9.61438 15 11.5 15H48.5C50.3856 15 51.3284 15 51.9142 15.5858C52.5 16.1716 52.5 17.1144 52.5 19V25H7.5V19Z" stroke="#5E419D" stroke-width="3"/>
<rect x="7.5" y="15" width="45" height="37.5" rx="2" stroke="#5E419D" stroke-width="3"/>
<path d="M17.5 7.5L17.5 15" stroke="#5E419D" stroke-width="3" stroke-linecap="round"/>
<path d="M42.5 7.5L42.5 15" stroke="#5E419D" stroke-width="3" stroke-linecap="round"/>
<rect x="18" y="33" width="10" height="4" rx="0.5" fill="#5E419D"/>
<rect x="18" y="41" width="10" height="4" rx="0.5" fill="#5E419D"/>
<rect x="33" y="33" width="10" height="4" rx="0.5" fill="#5E419D"/>
<rect x="33" y="41" width="10" height="4" rx="0.5" fill="#5E419D"/>
</svg>
