<svg width="28" height="24" viewBox="0 0 28 24" fill="none" xmlns="http://www.w3.org/2000/svg">
<path d="M7.1563 4.67412C8.26608 4 9.81099 4 12.9008 4C15.9906 4 17.5355 4 18.6453 4.67412C19.1257 4.96596 19.5383 5.34096 19.8593 5.77772C20.5071 6.65907 20.589 7.8423 20.5993 10L20.6008 10L23.0331 11.1056C23.8438 11.4741 23.8438 12.5259 23.0331 12.8944L20.6008 14L20.5993 14C20.589 16.1577 20.5071 17.3409 19.8593 18.2223C19.5383 18.659 19.1257 19.034 18.6453 19.3259C17.5355 20 15.9906 20 12.9008 20C9.81099 20 8.26608 20 7.1563 19.3259C6.67586 19.034 6.26336 18.659 5.94234 18.2223C5.20081 17.2134 5.20081 15.8089 5.20081 13L5.20081 11C5.20081 8.19108 5.20081 6.78661 5.94234 5.77772C6.26336 5.34096 6.67586 4.96596 7.1563 4.67412Z" fill="#5E419D" stroke="white" stroke-width="1.2" stroke-linecap="round" stroke-linejoin="round"/>
<path d="M10.7008 15L10.7008 9" stroke="white" stroke-width="1.2" stroke-linecap="round" stroke-linejoin="round"/>
<path d="M15.1008 15L15.1008 12" stroke="white" stroke-width="1.2" stroke-linecap="round" stroke-linejoin="round"/>
</svg>
