<svg width="24" height="24" viewBox="0 0 24 24" fill="none" xmlns="http://www.w3.org/2000/svg">
<path d="M19.3255 5.77772C19.9996 6.78661 19.9996 8.19108 19.9996 11C19.9996 13.8089 19.9996 15.2134 19.3255 16.2223C19.0337 16.659 18.6587 17.034 18.2219 17.3259C17.3406 17.9148 16.1573 17.9892 13.9996 17.9986V18L12.8941 20.2111C12.5255 20.9482 11.4737 20.9482 11.1052 20.2111L9.99963 18V17.9986C7.84193 17.9892 6.6587 17.9148 5.77735 17.3259C5.34059 17.034 4.96559 16.659 4.67376 16.2223C3.99963 15.2134 3.99963 13.8089 3.99963 11C3.99963 8.19108 3.99963 6.78661 4.67376 5.77772C4.96559 5.34096 5.34059 4.96596 5.77735 4.67412C6.78625 4 8.19071 4 10.9996 4H12.9996C15.8086 4 17.213 4 18.2219 4.67412C18.6587 4.96596 19.0337 5.34096 19.3255 5.77772Z" fill="white" stroke="#5E419D" stroke-width="1.2" stroke-linecap="round" stroke-linejoin="round"/>
<path d="M8.99963 9L14.9996 9" stroke="#5E419D" stroke-width="1.2" stroke-linecap="round" stroke-linejoin="round"/>
<path d="M8.99963 13H11.9996" stroke="#5E419D" stroke-width="1.2" stroke-linecap="round" stroke-linejoin="round"/>
</svg>
