<svg width="24" height="24" viewBox="0 0 24 24" fill="none" xmlns="http://www.w3.org/2000/svg">
<path d="M19.3254 5.77772C19.9995 6.78661 19.9995 8.19108 19.9995 11C19.9995 13.8089 19.9995 15.2134 19.3254 16.2223C19.0336 16.659 18.6586 17.034 18.2218 17.3259C17.3404 17.9148 16.1572 17.9892 13.9995 17.9986V18L12.8939 20.2111C12.5254 20.9482 11.4736 20.9482 11.1051 20.2111L9.99951 18V17.9986C7.84181 17.9892 6.65858 17.9148 5.77723 17.3259C5.34047 17.034 4.96547 16.659 4.67363 16.2223C3.99951 15.2134 3.99951 13.8089 3.99951 11C3.99951 8.19108 3.99951 6.78661 4.67363 5.77772C4.96547 5.34096 5.34047 4.96596 5.77723 4.67412C6.78612 4 8.19059 4 10.9995 4H12.9995C15.8084 4 17.2129 4 18.2218 4.67412C18.6586 4.96596 19.0336 5.34096 19.3254 5.77772Z" fill="white" stroke="#5E419D" stroke-width="1.2" stroke-linecap="round" stroke-linejoin="round"/>
<path d="M8.99951 9L14.9995 9" stroke="#5E419D" stroke-width="1.2" stroke-linecap="round" stroke-linejoin="round"/>
<path d="M8.99951 13H11.9995" stroke="#5E419D" stroke-width="1.2" stroke-linecap="round" stroke-linejoin="round"/>
</svg>
