<svg width="67" height="70" viewBox="0 0 67 70" fill="none" xmlns="http://www.w3.org/2000/svg">
<path d="M64.8074 46.8983H0.501671V51.2134C0.417013 56.0372 3.54933 60.878 9.91556 64.5573C22.4702 71.8141 42.8304 71.8141 55.385 64.5573C61.7513 60.878 64.8836 56.0372 64.7905 51.2134C64.8074 51.2134 64.8074 46.8983 64.8074 46.8983Z" fill="url(#paint0_linear_526_10883)"/>
<path d="M32.6548 65.4899C50.4123 65.4899 64.8077 57.1662 64.8077 46.8984C64.8077 36.6306 50.4123 28.3069 32.6548 28.3069C14.8973 28.3069 0.501953 36.6306 0.501953 46.8984C0.501953 57.1662 14.8973 65.4899 32.6548 65.4899Z" fill="url(#paint1_linear_526_10883)"/>
<path d="M61.8615 46.8984C61.8615 47.1358 61.853 47.3732 61.8361 47.6021C61.5313 51.3577 58.7461 54.9776 53.9291 57.8685C48.2909 61.2426 40.7479 63.0992 32.6632 63.0992C24.5784 63.0992 17.0354 61.2426 11.4057 57.8685C6.58024 54.9776 3.79501 51.3577 3.49024 47.6021C3.47331 47.3732 3.46484 47.1358 3.46484 46.8984C3.46484 42.897 6.28393 38.9973 11.4142 35.9283C17.0439 32.5542 24.5953 30.6976 32.6716 30.6976C40.7564 30.6976 48.2994 32.5542 53.9375 35.9283C59.0424 38.9973 61.8615 42.897 61.8615 46.8984Z" fill="url(#paint2_linear_526_10883)"/>
<path d="M61.8273 47.5935C61.5225 51.3491 58.7373 54.969 53.9203 57.8599C48.2821 61.234 40.7391 63.0906 32.6544 63.0906C24.5696 63.0906 17.0266 61.234 11.3969 57.8599C6.57143 54.969 3.78621 51.3491 3.48145 47.5935C3.78621 43.8379 6.5799 40.2179 11.3969 37.327C17.0266 33.9529 24.578 32.0963 32.6544 32.0963C40.7391 32.0963 48.2821 33.9529 53.9203 37.327C58.7458 40.2179 61.5225 43.8379 61.8273 47.5935Z" fill="url(#paint3_linear_526_10883)"/>
<path d="M46.0389 55.8254C44.769 56.5121 43.4822 57.0377 42.17 57.4192C40.8578 57.7922 39.6049 58.0465 38.4197 58.1737C37.2345 58.3009 36.1847 58.3178 35.262 58.2161C34.3392 58.1143 33.6535 57.9194 33.1963 57.6396C32.9677 57.4955 32.773 57.3259 32.6207 57.114C32.4598 56.9105 32.3582 56.6901 32.3244 56.4612C32.282 56.2323 32.3074 56.0119 32.4006 55.8084C32.4937 55.5965 32.6545 55.4269 32.9 55.2998C33.2217 55.1217 33.6958 55.0285 34.3053 55.02C34.9233 55.0115 35.6429 54.9776 36.481 54.9352C37.3191 54.8928 38.2419 54.7826 39.2409 54.6046C40.2398 54.4266 41.2896 54.0875 42.3901 53.5788L33.4926 48.0853C32.2736 48.3905 31.0291 48.6872 29.7592 48.967C28.4894 49.2467 27.2111 49.4078 25.9327 49.4587C24.6544 49.5095 23.3761 49.4078 22.1147 49.1619C20.8533 48.9161 19.6088 48.4159 18.3982 47.6614C17.213 46.9323 16.4172 46.1863 16.0194 45.4233C15.6215 44.6603 15.4945 43.9143 15.6384 43.1767C15.7823 42.4392 16.1717 41.7355 16.7982 41.0573C17.4247 40.3791 18.1697 39.7517 19.0416 39.1668L17.9411 38.4886C17.7125 38.3445 17.6194 38.1664 17.6617 37.9375C17.704 37.7086 17.8988 37.5052 18.2458 37.3187C18.5421 37.1576 18.9062 37.0643 19.3379 37.0389C19.7697 37.0135 20.0998 37.0643 20.3369 37.2084L21.3697 37.8443C22.0385 37.4797 22.8258 37.1237 23.7232 36.7676C24.6205 36.4116 25.501 36.1233 26.3814 35.9029C27.2534 35.6825 28.083 35.5553 28.8534 35.5299C29.6238 35.5044 30.2418 35.6401 30.6989 35.9198C30.8767 36.0301 31.0545 36.1827 31.2407 36.3692C31.427 36.5641 31.5624 36.7676 31.6386 36.988C31.7148 37.2084 31.7233 37.4289 31.6471 37.6493C31.5709 37.8697 31.3847 38.0562 31.0884 38.2173C30.8429 38.3529 30.5296 38.4462 30.1317 38.514C29.7338 38.5818 29.2767 38.6666 28.7434 38.7599C28.2185 38.8531 27.6174 38.9972 26.9571 39.1753C26.2968 39.3618 25.5856 39.6246 24.8322 39.9722L32.5191 44.7112C33.7127 44.4145 34.9403 44.1516 36.2101 43.9227C37.48 43.6939 38.7583 43.5752 40.0705 43.5667C41.3742 43.5582 42.6864 43.7108 43.9986 44.0245C45.3108 44.3382 46.6145 44.8892 47.9013 45.6861C50.2209 47.1188 51.3553 48.6024 51.2961 50.1454C51.2368 51.6883 50.2548 53.1295 48.35 54.4859L49.6368 55.2828C49.8654 55.4269 49.9415 55.6134 49.8569 55.8678C49.7807 56.1136 49.586 56.3171 49.2897 56.4782C48.9426 56.6647 48.5701 56.7664 48.1722 56.7749C47.7743 56.7834 47.4696 56.7155 47.241 56.5714L46.0389 55.8254ZM22.0554 45.2368C22.5888 45.5674 23.1475 45.7963 23.7401 45.9235C24.3327 46.0591 24.9422 46.11 25.5687 46.093C26.1952 46.0761 26.8555 46.0083 27.5412 45.8811C28.2269 45.7624 28.9296 45.6098 29.6407 45.4233L22.7496 41.176C21.7422 41.8712 21.1327 42.5663 20.9041 43.27C20.6924 43.9736 21.0734 44.6349 22.0554 45.2368ZM44.261 48.1277C43.0758 47.3986 41.8314 47.0256 40.5277 47.0171C39.2239 47.0086 37.8694 47.1527 36.4726 47.441L44.4558 52.3665C45.3616 51.6459 45.8187 50.9253 45.8526 50.2047C45.8695 49.4926 45.3447 48.7974 44.261 48.1277Z" fill="url(#paint4_linear_526_10883)"/>
<path d="M66.9923 41.5659H2.69503V45.881C2.61037 50.7048 5.7427 55.5456 12.1089 59.2249C24.6636 66.4817 45.0237 66.4817 57.5784 59.2249C63.9446 55.5456 67.0769 50.7048 66.9838 45.881C66.9923 45.881 66.9923 41.5659 66.9923 41.5659Z" fill="url(#paint5_linear_526_10883)"/>
<path d="M34.8482 60.1575C52.6057 60.1575 67.001 51.8338 67.001 41.566C67.001 31.2982 52.6057 22.9745 34.8482 22.9745C17.0906 22.9745 2.69531 31.2982 2.69531 41.566C2.69531 51.8338 17.0906 60.1575 34.8482 60.1575Z" fill="url(#paint6_linear_526_10883)"/>
<path d="M64.046 41.566C64.046 41.8034 64.0376 42.0408 64.0206 42.2697C63.7159 46.0338 60.9307 49.6452 56.1137 52.5361C50.4755 55.9102 42.9325 57.7668 34.8477 57.7668C26.763 57.7668 19.22 55.9102 13.5903 52.5361C8.76481 49.6452 5.97958 46.0253 5.67481 42.2697C5.65788 42.0408 5.64941 41.8034 5.64941 41.566C5.64941 37.5646 8.4685 33.6649 13.5987 30.596C19.2285 27.2218 26.7799 25.3652 34.8562 25.3652C42.941 25.3652 50.484 27.2218 56.1221 30.596C61.227 33.6649 64.046 37.5646 64.046 41.566Z" fill="url(#paint7_linear_526_10883)"/>
<path d="M64.0206 42.2612C63.7159 46.0253 60.9307 49.6368 56.1137 52.5276C50.4755 55.9017 42.9325 57.7583 34.8477 57.7583C26.763 57.7583 19.22 55.9017 13.5903 52.5276C8.7648 49.6368 5.97957 46.0168 5.6748 42.2612C5.97957 38.5056 8.77327 34.8856 13.5903 31.9948C19.22 28.6206 26.7714 26.764 34.8477 26.764C42.9325 26.764 50.4755 28.6206 56.1137 31.9948C60.9307 34.8856 63.7074 38.5056 64.0206 42.2612Z" fill="url(#paint8_linear_526_10883)"/>
<path d="M48.2234 50.4929C46.9535 51.1795 45.6668 51.7052 44.3546 52.0867C43.0424 52.4597 41.7895 52.714 40.6042 52.8412C39.419 52.9683 38.3693 52.9853 37.4465 52.8836C36.5238 52.7818 35.838 52.5868 35.3809 52.3071C35.1523 52.163 34.9576 51.9934 34.8052 51.7815C34.6444 51.578 34.5428 51.3576 34.5089 51.1287C34.4666 50.8998 34.492 50.6794 34.5851 50.4759C34.6782 50.264 34.8391 50.0944 35.0846 49.9672C35.4063 49.7892 35.8804 49.696 36.4899 49.6875C37.1079 49.679 37.8275 49.6451 38.6656 49.6027C39.5037 49.5603 40.4265 49.4501 41.4254 49.2721C42.4244 49.094 43.4741 48.7549 44.5747 48.2463L35.6772 42.7528C34.4581 43.058 33.2137 43.3547 31.9438 43.6344C30.6739 43.9142 29.3956 44.0753 28.1173 44.1261C26.839 44.177 25.5606 44.0753 24.2992 43.8294C23.0379 43.5751 21.7934 43.0834 20.5828 42.3289C19.3976 41.5998 18.6018 40.8538 18.2039 40.0908C17.806 39.3278 17.6791 38.5818 17.823 37.8442C17.9669 37.1066 18.3563 36.403 18.9828 35.7248C19.6092 35.0466 20.3542 34.4192 21.2262 33.8343L20.1256 33.1561C19.8971 33.0119 19.8039 32.8339 19.8463 32.605C19.8886 32.3761 20.0833 32.1727 20.4304 31.9861C20.7267 31.8251 21.0907 31.7318 21.5225 31.7064C21.9542 31.6809 22.2844 31.7318 22.5215 31.8759L23.5543 32.5118C24.2231 32.1472 25.0104 31.7912 25.9077 31.4351C26.8051 31.079 27.6855 30.7908 28.566 30.5704C29.438 30.3499 30.2676 30.2228 31.038 30.1974C31.8084 30.1719 32.4264 30.3076 32.8835 30.5873C33.0613 30.6975 33.2391 30.8501 33.4253 31.0366C33.6116 31.2316 33.747 31.4351 33.8232 31.6555C33.8994 31.8759 33.9079 32.0964 33.8317 32.3168C33.7555 32.5372 33.5692 32.7237 33.2729 32.8848C33.0274 33.0204 32.7142 33.1137 32.3163 33.1815C31.9184 33.2493 31.4613 33.3341 30.9279 33.4273C30.403 33.5206 29.802 33.6647 29.1417 33.8427C28.4813 34.0293 27.7702 34.2921 27.0168 34.6396L34.7036 39.3787C35.8973 39.0819 37.1248 38.8191 38.3947 38.5902C39.6646 38.3613 40.9429 38.2426 42.2551 38.2342C43.5588 38.2257 44.871 38.3783 46.1832 38.692C47.4954 39.0056 48.7991 39.5567 50.0859 40.3536C52.4055 41.7863 53.5399 43.2699 53.4806 44.8128C53.4214 46.3558 52.4394 47.797 50.5346 49.1534L51.8213 49.9503C52.0499 50.0944 52.1261 50.2809 52.0415 50.5352C51.9653 50.7811 51.7705 50.9846 51.4742 51.1456C51.1272 51.3321 50.7547 51.4339 50.3568 51.4424C49.9589 51.4508 49.6541 51.383 49.4256 51.2389L48.2234 50.4929ZM24.24 39.9043C24.7733 40.2349 25.3321 40.4638 25.9247 40.591C26.5173 40.7266 27.1268 40.7775 27.7533 40.7605C28.3797 40.7436 29.0401 40.6757 29.7258 40.5486C30.4115 40.4299 31.1142 40.2773 31.8253 40.0908L24.9342 35.8435C23.9268 36.5386 23.3172 37.2338 23.0887 37.9375C22.877 38.6411 23.258 39.3024 24.24 39.9043ZM46.4456 42.7952C45.2604 42.0661 44.0159 41.6931 42.7122 41.6846C41.4085 41.6761 40.054 41.8202 38.6571 42.1085L46.6403 47.034C47.5462 46.3134 48.0033 45.5928 48.0372 44.8722C48.0626 44.1601 47.5292 43.4649 46.4456 42.7952Z" fill="url(#paint9_linear_526_10883)"/>
<path d="M64.8074 35.6569H0.501671V39.972C0.417013 44.7958 3.54933 49.6365 9.91556 53.3158C22.4702 60.5727 42.8304 60.5727 55.385 53.3158C61.7513 49.6365 64.8836 44.7958 64.7905 39.972C64.8074 39.972 64.8074 35.6569 64.8074 35.6569Z" fill="url(#paint10_linear_526_10883)"/>
<path d="M32.6548 54.2484C50.4123 54.2484 64.8077 45.9247 64.8077 35.6569C64.8077 25.3891 50.4123 17.0654 32.6548 17.0654C14.8973 17.0654 0.501953 25.3891 0.501953 35.6569C0.501953 45.9247 14.8973 54.2484 32.6548 54.2484Z" fill="url(#paint11_linear_526_10883)"/>
<path d="M61.8615 35.6484C61.8615 35.8858 61.853 36.1232 61.8361 36.3521C61.5313 40.1077 58.7461 43.7276 53.9291 46.6185C48.2909 49.9926 40.7479 51.8492 32.6632 51.8492C24.5784 51.8492 17.0354 49.9926 11.4057 46.6185C6.58024 43.7276 3.79501 40.1077 3.49024 36.3521C3.47331 36.1232 3.46484 35.8858 3.46484 35.6484C3.46484 31.647 6.28393 27.7473 11.4142 24.6783C17.0439 21.3042 24.5953 19.4476 32.6716 19.4476C40.7564 19.4476 48.2994 21.3042 53.9375 24.6783C59.0424 27.7557 61.8615 31.647 61.8615 35.6484Z" fill="url(#paint12_linear_526_10883)"/>
<path d="M61.8273 36.352C61.5225 40.1076 58.7373 43.7276 53.9203 46.6185C48.2821 49.9926 40.7391 51.8492 32.6544 51.8492C24.5696 51.8492 17.0266 49.9926 11.3969 46.6185C6.57143 43.7276 3.78621 40.1076 3.48145 36.352C3.78621 32.5964 6.5799 28.9765 11.3969 26.0856C17.0266 22.7115 24.578 20.8549 32.6544 20.8549C40.7391 20.8549 48.2821 22.7115 53.9203 26.0856C58.7458 28.9765 61.5225 32.5964 61.8273 36.352Z" fill="url(#paint13_linear_526_10883)"/>
<path d="M46.0389 44.5839C44.769 45.2706 43.4822 45.7962 42.17 46.1777C40.8578 46.5507 39.6049 46.805 38.4197 46.9322C37.2345 47.0593 36.1847 47.0763 35.262 46.9746C34.3392 46.8728 33.6535 46.6779 33.1963 46.3981C32.9677 46.254 32.773 46.0844 32.6207 45.8725C32.4598 45.669 32.3582 45.4486 32.3244 45.2197C32.282 44.9908 32.3074 44.7704 32.4006 44.5669C32.4937 44.355 32.6545 44.1854 32.9 44.0583C33.2217 43.8802 33.6958 43.787 34.3053 43.7785C34.9233 43.77 35.6429 43.7361 36.481 43.6937C37.3191 43.6513 38.2419 43.5411 39.2409 43.3631C40.2398 43.1851 41.2896 42.846 42.3901 42.3373L33.4926 36.8523C32.2736 37.1574 31.0291 37.4542 29.7592 37.7339C28.4894 38.0137 27.2111 38.1748 25.9327 38.2256C24.6544 38.2765 23.3761 38.1748 22.1147 37.9289C20.8533 37.6831 19.6088 37.1829 18.3982 36.4284C17.213 35.6993 16.4172 34.9533 16.0194 34.1903C15.6215 33.4273 15.4945 32.6812 15.6384 31.9437C15.7823 31.2061 16.1717 30.5025 16.7982 29.8243C17.4247 29.1461 18.1697 28.5187 19.0416 27.9338L17.9411 27.2555C17.7125 27.1114 17.6194 26.9334 17.6617 26.7045C17.704 26.4756 17.8988 26.2721 18.2458 26.0856C18.5421 25.9246 18.9062 25.8313 19.3379 25.8059C19.7697 25.7804 20.0998 25.8313 20.3369 25.9754L21.3697 26.6112C22.0385 26.2467 22.8258 25.8906 23.7232 25.5346C24.6205 25.1785 25.501 24.8903 26.3814 24.6699C27.2534 24.4494 28.083 24.3223 28.8534 24.2968C29.6238 24.2714 30.2418 24.4071 30.6989 24.6868C30.8767 24.797 31.0545 24.9496 31.2407 25.1361C31.427 25.3311 31.5624 25.5346 31.6386 25.755C31.7148 25.9754 31.7233 26.1958 31.6471 26.4163C31.5709 26.6367 31.3847 26.8232 31.0884 26.9843C30.8429 27.1114 30.5296 27.2132 30.1317 27.281C29.7338 27.3488 29.2767 27.4336 28.7434 27.5268C28.2185 27.6201 27.6174 27.7642 26.9571 27.9422C26.2968 28.1287 25.5856 28.3915 24.8322 28.7391L32.5191 33.4781C33.7127 33.1814 34.9403 32.9186 36.2101 32.6897C37.48 32.4608 38.7583 32.3421 40.0705 32.3337C41.3742 32.3252 42.6864 32.4778 43.9986 32.7915C45.3108 33.1051 46.6145 33.6562 47.9013 34.4531C50.2209 35.8858 51.3553 37.3694 51.2961 38.9123C51.2368 40.4553 50.2548 41.8965 48.35 43.2529L49.6368 44.0498C49.8654 44.1939 49.9415 44.3804 49.8569 44.6347C49.7807 44.8806 49.586 45.0841 49.2897 45.2451C48.9426 45.4316 48.5701 45.5334 48.1722 45.5418C47.7743 45.5503 47.4696 45.4825 47.241 45.3384L46.0389 44.5839ZM22.0554 33.9953C22.5888 34.3259 23.1475 34.5548 23.7401 34.682C24.3327 34.8176 24.9422 34.8685 25.5687 34.8515C26.1952 34.8346 26.8555 34.7667 27.5412 34.6396C28.2269 34.5209 28.9296 34.3683 29.6407 34.1818L22.7496 29.9345C21.7422 30.6212 21.1327 31.3248 20.9041 32.0285C20.6924 32.7321 21.0734 33.3849 22.0554 33.9953ZM44.261 36.8862C43.0758 36.1571 41.8314 35.7841 40.5277 35.7756C39.2239 35.7671 37.8694 35.9112 36.4726 36.1995L44.4558 41.125C45.3616 40.4044 45.8187 39.6838 45.8526 38.9632C45.8695 38.2426 45.3447 37.5559 44.261 36.8862Z" fill="url(#paint14_linear_526_10883)"/>
<path d="M64.8074 30.0363H0.501671V34.3514C0.417013 39.1752 3.54933 44.0159 9.91556 47.6952C22.4702 54.9521 42.8304 54.9521 55.385 47.6952C61.7513 44.0159 64.8836 39.1752 64.7905 34.3514C64.8074 34.3514 64.8074 30.0363 64.8074 30.0363Z" fill="url(#paint15_linear_526_10883)"/>
<path d="M32.6548 48.6278C50.4123 48.6278 64.8077 40.3041 64.8077 30.0363C64.8077 19.7685 50.4123 11.4448 32.6548 11.4448C14.8973 11.4448 0.501953 19.7685 0.501953 30.0363C0.501953 40.3041 14.8973 48.6278 32.6548 48.6278Z" fill="url(#paint16_linear_526_10883)"/>
<path d="M61.8615 30.0278C61.8615 30.2652 61.853 30.5026 61.8361 30.7315C61.5313 34.4871 58.7461 38.107 53.9291 40.9979C48.2909 44.372 40.7479 46.2286 32.6632 46.2286C24.5784 46.2286 17.0354 44.372 11.4057 40.9979C6.58024 38.107 3.79501 34.4871 3.49024 30.7315C3.47331 30.5026 3.46484 30.2652 3.46484 30.0278C3.46484 26.0264 6.28393 22.1267 11.4142 19.0577C17.0439 15.6836 24.5953 13.827 32.6716 13.827C40.7564 13.827 48.2994 15.6836 53.9375 19.0577C59.0424 22.1351 61.8615 26.0264 61.8615 30.0278Z" fill="url(#paint17_linear_526_10883)"/>
<path d="M61.8273 30.7314C61.5225 34.487 58.7373 38.107 53.9203 40.9978C48.2821 44.372 40.7391 46.2286 32.6544 46.2286C24.5696 46.2286 17.0266 44.372 11.3969 40.9978C6.57143 38.107 3.78621 34.487 3.48145 30.7314C3.78621 26.9758 6.5799 23.3558 11.3969 20.465C17.0266 17.0909 24.578 15.2343 32.6544 15.2343C40.7391 15.2343 48.2821 17.0909 53.9203 20.465C58.7458 23.3558 61.5225 26.9758 61.8273 30.7314Z" fill="url(#paint18_linear_526_10883)"/>
<path d="M46.0389 38.9632C44.769 39.6499 43.4822 40.1755 42.17 40.557C40.8578 40.93 39.6049 41.1843 38.4197 41.3115C37.2345 41.4387 36.1847 41.4556 35.262 41.3539C34.3392 41.2522 33.6535 41.0572 33.1963 40.7774C32.9677 40.6333 32.773 40.4637 32.6207 40.2518C32.4598 40.0483 32.3582 39.8279 32.3244 39.599C32.282 39.3701 32.3074 39.1497 32.4006 38.9462C32.4937 38.7343 32.6545 38.5647 32.9 38.4376C33.2217 38.2596 33.6958 38.1663 34.3053 38.1578C34.9233 38.1493 35.6429 38.1154 36.481 38.073C37.3191 38.0307 38.2419 37.9204 39.2409 37.7424C40.2398 37.5644 41.2896 37.2253 42.3901 36.7166L33.4926 31.2231C32.2736 31.5283 31.0291 31.825 29.7592 32.1048C28.4894 32.3845 27.2111 32.5456 25.9327 32.5965C24.6544 32.6473 23.3761 32.5456 22.1147 32.2998C20.8533 32.0539 19.6088 31.5537 18.3982 30.7992C17.213 30.0701 16.4172 29.3241 16.0194 28.5611C15.6215 27.7981 15.4945 27.0521 15.6384 26.3145C15.7823 25.577 16.1717 24.8733 16.7982 24.1951C17.4247 23.5169 18.1697 22.8896 19.0416 22.3046L17.9411 21.6264C17.7125 21.4823 17.6194 21.3042 17.6617 21.0753C17.704 20.8464 17.8988 20.643 18.2458 20.4565C18.5421 20.2954 18.9062 20.2021 19.3379 20.1767C19.7697 20.1513 20.0998 20.2021 20.3369 20.3463L21.3697 20.9821C22.0385 20.6176 22.8258 20.2615 23.7232 19.9054C24.6205 19.5494 25.501 19.2611 26.3814 19.0407C27.2534 18.8203 28.083 18.6931 28.8534 18.6677C29.6238 18.6423 30.2418 18.7779 30.6989 19.0577C30.8767 19.1679 31.0545 19.3205 31.2407 19.507C31.427 19.702 31.5624 19.9054 31.6386 20.1258C31.7148 20.3463 31.7233 20.5667 31.6471 20.7871C31.5709 21.0075 31.3847 21.194 31.0884 21.3551C30.8429 21.4823 30.5296 21.584 30.1317 21.6518C29.7338 21.7196 29.2767 21.8044 28.7434 21.8977C28.2185 21.9909 27.6174 22.1351 26.9571 22.3131C26.2968 22.4996 25.5856 22.7624 24.8322 23.11L32.5191 27.849C33.7127 27.5523 34.9403 27.2895 36.2101 27.0606C37.48 26.8317 38.7583 26.713 40.0705 26.7045C41.3742 26.696 42.6864 26.8486 43.9986 27.1623C45.3108 27.476 46.6145 28.027 47.9013 28.8239C50.2209 30.2566 51.3553 31.7402 51.2961 33.2832C51.2368 34.8261 50.2548 36.2673 48.35 37.6237L49.6368 38.4206C49.8654 38.5647 49.9415 38.7513 49.8569 39.0056C49.7807 39.2514 49.586 39.4549 49.2897 39.616C48.9426 39.8025 48.5701 39.9042 48.1722 39.9127C47.7743 39.9212 47.4696 39.8534 47.241 39.7092L46.0389 38.9632ZM22.0554 28.3746C22.5888 28.7052 23.1475 28.9341 23.7401 29.0613C24.3327 29.1969 24.9422 29.2478 25.5687 29.2309C26.1952 29.2139 26.8555 29.1461 27.5412 29.0189C28.2269 28.9002 28.9296 28.7476 29.6407 28.5611L22.7496 24.3138C21.7422 25.009 21.1327 25.7041 20.9041 26.4078C20.6924 27.1114 21.0734 27.7642 22.0554 28.3746ZM44.261 31.2655C43.0758 30.5364 41.8314 30.1634 40.5277 30.1549C39.2239 30.1464 37.8694 30.2906 36.4726 30.5788L44.4558 35.5043C45.3616 34.7837 45.8187 34.0631 45.8526 33.3425C45.8695 32.6219 45.3447 31.9352 44.261 31.2655Z" fill="url(#paint19_linear_526_10883)"/>
<path d="M65.5779 24.5089H1.27218V28.824C1.18752 33.6478 4.31984 38.4886 10.6861 42.1679C23.2408 49.4247 43.6008 49.4247 56.1555 42.1679C62.5218 38.4886 65.6541 33.6478 65.561 28.824C65.5779 28.824 65.5779 24.5089 65.5779 24.5089Z" fill="url(#paint20_linear_526_10883)"/>
<path d="M33.4253 43.1004C51.1828 43.1004 65.5782 34.7767 65.5782 24.5089C65.5782 14.2411 51.1828 5.91736 33.4253 5.91736C15.6678 5.91736 1.27246 14.2411 1.27246 24.5089C1.27246 34.7767 15.6678 43.1004 33.4253 43.1004Z" fill="url(#paint21_linear_526_10883)"/>
<path d="M62.632 24.5004C62.632 24.7377 62.6235 24.9751 62.6066 25.204C62.3018 28.9596 59.5166 32.5796 54.6996 35.4704C49.0614 38.8446 41.5184 40.7012 33.4337 40.7012C25.3489 40.7012 17.8059 38.8446 12.1762 35.4704C7.35075 32.5796 4.56551 28.9596 4.26075 25.204C4.24382 24.9751 4.23535 24.7377 4.23535 24.5004C4.23535 20.4989 7.05445 16.5992 12.1762 13.5303C17.8059 10.1562 25.3574 8.29956 33.4337 8.29956C41.5184 8.29956 49.0614 10.1562 54.6996 13.5303C59.8129 16.6077 62.632 20.4989 62.632 24.5004Z" fill="url(#paint22_linear_526_10883)"/>
<path d="M62.5978 25.2041C62.293 28.9597 59.5078 32.5796 54.6908 35.4705C49.0526 38.8446 41.5096 40.7012 33.4249 40.7012C25.3401 40.7012 17.7971 38.8446 12.1674 35.4705C7.34194 32.5796 4.55672 28.9597 4.25195 25.2041C4.55672 21.4485 7.3504 17.8285 12.1674 14.9376C17.7971 11.5635 25.3486 9.70691 33.4249 9.70691C41.5096 9.70691 49.0526 11.5635 54.6908 14.9376C59.5078 17.8285 62.293 21.4485 62.5978 25.2041Z" fill="url(#paint23_linear_526_10883)"/>
<path d="M46.8093 33.4358C45.5395 34.1225 44.2527 34.6481 42.9405 35.0296C41.6283 35.4026 40.3754 35.6569 39.1902 35.7841C38.005 35.9113 36.9552 35.9282 36.0325 35.8265C35.1097 35.7248 34.424 35.5298 33.9668 35.25C33.7383 35.1059 33.5436 34.9363 33.3912 34.7244C33.2303 34.5209 33.1287 34.3005 33.0949 34.0716C33.0525 33.8427 33.0779 33.6223 33.1711 33.4188C33.2642 33.2069 33.425 33.0373 33.6705 32.9102C33.9922 32.7322 34.4663 32.6389 35.0758 32.6304C35.6938 32.6219 36.4134 32.588 37.2515 32.5456C38.0896 32.5033 39.0124 32.393 40.0114 32.215C41.0103 32.037 42.0601 31.6979 43.1606 31.1892L34.2631 25.7042C33.0441 26.0094 31.7996 26.3061 30.5297 26.5859C29.2599 26.8656 27.9816 27.0267 26.7032 27.0776C25.4249 27.1284 24.1466 27.0267 22.8852 26.7808C21.6238 26.535 20.3793 26.0348 19.1687 25.2803C17.9835 24.5512 17.1878 23.8052 16.7899 23.0422C16.392 22.2792 16.265 21.5332 16.4089 20.7956C16.5528 20.0581 16.9422 19.3544 17.5687 18.6762C18.1952 17.998 18.9402 17.3706 19.8121 16.7857L18.7116 16.1075C18.483 15.9634 18.3899 15.7853 18.4322 15.5564C18.4745 15.3275 18.6692 15.1241 19.0163 14.9376C19.3126 14.7765 19.6767 14.6832 20.1084 14.6578C20.5402 14.6324 20.8703 14.6832 21.1074 14.8273L22.1402 15.4632C22.809 15.0986 23.5963 14.7426 24.4937 14.3865C25.391 14.0304 26.2715 13.7422 27.1519 13.5218C28.0239 13.3014 28.8535 13.1742 29.6239 13.1488C30.3943 13.1233 31.0123 13.259 31.4694 13.5387C31.6472 13.649 31.825 13.8015 32.0112 13.9881C32.1975 14.183 32.3329 14.3865 32.4091 14.6069C32.4853 14.8273 32.4938 15.0478 32.4176 15.2682C32.3414 15.4886 32.1552 15.6751 31.8589 15.8362C31.6134 15.9634 31.3001 16.0651 30.9022 16.1329C30.5043 16.2007 30.0472 16.2855 29.5139 16.3788C28.989 16.472 28.3879 16.6161 27.7276 16.7942C27.0673 16.9807 26.3561 17.2435 25.6027 17.5911L33.2896 22.3301C34.4832 22.0334 35.7108 21.7705 36.9806 21.5417C38.2505 21.3128 39.5288 21.1941 40.841 21.1856C42.1447 21.1771 43.4569 21.3297 44.7691 21.6434C46.0813 21.9571 47.385 22.5081 48.6718 23.305C50.9914 24.7377 52.1258 26.2213 52.0666 27.7642C52.0073 29.3072 51.0253 30.7484 49.1205 32.1048L50.4073 32.9017C50.6359 33.0458 50.712 33.2323 50.6274 33.4867C50.5512 33.7325 50.3565 33.936 50.0602 34.0971C49.7131 34.2836 49.3406 34.3853 48.9427 34.3938C48.5448 34.4023 48.2401 34.3344 48.0115 34.1903L46.8093 33.4358ZM22.8259 22.8472C23.3593 23.1778 23.918 23.4067 24.5106 23.5339C25.1032 23.6695 25.7127 23.7204 26.3392 23.7035C26.9657 23.6865 27.626 23.6187 28.3117 23.4915C28.9975 23.3728 29.7001 23.2117 30.4112 23.0337L23.5201 18.7864C22.5127 19.4816 21.9032 20.1767 21.6746 20.8804C21.4629 21.584 21.8439 22.2368 22.8259 22.8472ZM45.0316 25.7381C43.8463 25.009 42.6019 24.636 41.2982 24.6275C39.9944 24.619 38.6399 24.7632 37.2431 25.0514L45.2263 29.9769C46.1321 29.2563 46.5892 28.5357 46.6231 27.8151C46.64 27.0945 46.1152 26.4078 45.0316 25.7381Z" fill="url(#paint24_linear_526_10883)"/>
<path d="M66.991 18.5916H2.68526V22.9067C2.60061 27.7305 5.73293 32.5712 12.0992 36.2505C24.6538 43.5074 45.0139 43.5074 57.5686 36.2505C63.9349 32.5712 67.0672 27.7305 66.974 22.9067C66.991 22.9152 66.991 18.5916 66.991 18.5916Z" fill="url(#paint25_linear_526_10883)"/>
<path d="M34.8384 37.183C52.5959 37.183 66.9913 28.8593 66.9913 18.5915C66.9913 8.3237 52.5959 0 34.8384 0C17.0809 0 2.68555 8.3237 2.68555 18.5915C2.68555 28.8593 17.0809 37.183 34.8384 37.183Z" fill="url(#paint26_linear_526_10883)"/>
<path d="M64.0451 18.5915C64.0451 18.8289 64.0366 19.0663 64.0197 19.2952C63.7149 23.0508 60.9297 26.6708 56.1127 29.5616C50.4745 32.9357 42.9315 34.7923 34.8468 34.7923C26.762 34.7923 19.219 32.9357 13.5893 29.5616C8.76383 26.6708 5.9786 23.0508 5.67383 19.2952C5.6569 19.0663 5.64844 18.8289 5.64844 18.5915C5.64844 14.5901 8.46753 10.6904 13.5978 7.62146C19.2275 4.24736 26.7789 2.39075 34.8552 2.39075C42.94 2.39075 50.483 4.24736 56.1212 7.62146C61.226 10.6989 64.0451 14.5901 64.0451 18.5915Z" fill="url(#paint27_linear_526_10883)"/>
<path d="M64.0197 19.2951C63.7149 23.0507 60.9297 26.6707 56.1127 29.5616C50.4745 32.9357 42.9315 34.7923 34.8468 34.7923C26.762 34.7923 19.219 32.9357 13.5893 29.5616C8.76383 26.6707 5.97859 23.0507 5.67383 19.2951C5.97859 15.5395 8.77229 11.9196 13.5893 9.02869C19.219 5.65458 26.7704 3.79797 34.8468 3.79797C42.9315 3.79797 50.4745 5.65458 56.1127 9.02869C60.9297 11.9196 63.7064 15.5395 64.0197 19.2951Z" fill="url(#paint28_linear_526_10883)"/>
<path d="M48.2224 27.5269C46.9526 28.2136 45.6658 28.7392 44.3536 29.1207C43.0414 29.4937 41.7885 29.7481 40.6033 29.8752C39.4181 30.0024 38.3683 30.0194 37.4456 29.9176C36.5228 29.8159 35.8371 29.6209 35.3799 29.3411C35.1513 29.197 34.9566 29.0275 34.8043 28.8155C34.6434 28.6121 34.5418 28.3916 34.5079 28.1627C34.4656 27.9338 34.491 27.7134 34.5841 27.51C34.6773 27.298 34.8381 27.1285 35.0836 27.0013C35.4053 26.8233 35.8794 26.73 36.4889 26.7215C37.1069 26.7131 37.8265 26.6792 38.6646 26.6368C39.5027 26.5944 40.4255 26.4842 41.4244 26.3061C42.4234 26.1281 43.4732 25.789 44.5737 25.2803L35.6762 19.7868C34.4572 20.092 33.2127 20.3887 31.9428 20.6685C30.673 20.9483 29.3946 21.1093 28.1163 21.1602C26.838 21.2111 25.5597 21.1093 24.2983 20.8635C23.0369 20.6176 21.7924 20.1175 20.5818 19.3629C19.3966 18.6339 18.6008 17.8878 18.2029 17.1248C17.8051 16.3619 17.6781 15.6158 17.822 14.8783C17.9659 14.1407 18.3553 13.4371 18.9818 12.7588C19.6083 12.0806 20.3532 11.4533 21.2252 10.8683L20.1247 10.1901C19.8961 10.046 19.803 9.86796 19.8453 9.63907C19.8876 9.41017 20.0823 9.2067 20.4294 9.0202C20.7257 8.85912 21.0898 8.76587 21.5215 8.74044C21.9533 8.715 22.2834 8.76587 22.5205 8.90999L23.5533 9.54581C24.2221 9.18127 25.0094 8.82521 25.9068 8.46915C26.8041 8.11309 27.6846 7.82485 28.565 7.60443C29.437 7.38401 30.2666 7.25685 31.037 7.23141C31.8074 7.20598 32.4254 7.34162 32.8825 7.62139C33.0603 7.73159 33.2381 7.88419 33.4243 8.0707C33.6106 8.26569 33.746 8.46915 33.8222 8.68957C33.8984 8.90999 33.9069 9.13041 33.8307 9.35083C33.7545 9.57125 33.5683 9.75775 33.272 9.91883C33.0265 10.0545 32.7132 10.1477 32.3153 10.2155C31.9174 10.2834 31.4603 10.3681 30.9269 10.4614C30.4021 10.5547 29.801 10.6988 29.1407 10.8768C28.4803 11.0633 27.7692 11.3261 27.0158 11.6737L34.7027 16.4127C35.8963 16.116 37.1239 15.8532 38.3937 15.6243C39.6636 15.3954 40.9419 15.2767 42.2541 15.2682C43.5578 15.2598 44.87 15.4124 46.1822 15.726C47.4944 16.0397 48.7981 16.5907 50.0849 17.3876C52.4045 18.8204 53.5389 20.304 53.4797 21.8469C53.4204 23.3898 52.4384 24.831 50.5336 26.1874L51.8204 26.9844C52.0489 27.1285 52.1251 27.315 52.0405 27.5693C51.9643 27.8152 51.7696 28.0186 51.4733 28.1797C51.1262 28.3662 50.7537 28.4679 50.3558 28.4764C49.9579 28.4849 49.6532 28.4171 49.4246 28.273L48.2224 27.5269ZM24.239 16.9383C24.7724 17.269 25.3311 17.4979 25.9237 17.625C26.5163 17.7607 27.1258 17.8115 27.7523 17.7946C28.3788 17.7776 29.0391 17.7098 29.7248 17.5826C30.4105 17.4639 31.1132 17.3113 31.8243 17.1248L24.9332 12.8775C23.9258 13.5727 23.3163 14.2679 23.0877 14.9715C22.876 15.6752 23.257 16.3279 24.239 16.9383ZM46.4446 19.8207C45.2594 19.0917 44.015 18.7186 42.7112 18.7102C41.4075 18.7017 40.053 18.8373 38.6562 19.134L46.6393 24.0596C47.5452 23.339 48.0023 22.6184 48.0362 21.8978C48.0531 21.1856 47.5282 20.4905 46.4446 19.8207Z" fill="url(#paint29_linear_526_10883)"/>
<defs>
<linearGradient id="paint0_linear_526_10883" x1="32.6537" y1="46.8983" x2="32.6537" y2="69.9999" gradientUnits="userSpaceOnUse">
<stop stop-color="#7E5EC1"/>
<stop offset="1" stop-color="#250D58"/>
</linearGradient>
<linearGradient id="paint1_linear_526_10883" x1="32.6548" y1="28.3069" x2="32.6548" y2="65.4899" gradientUnits="userSpaceOnUse">
<stop stop-color="#A384E6"/>
<stop offset="1" stop-color="#C0ABEE"/>
</linearGradient>
<linearGradient id="paint2_linear_526_10883" x1="32.6632" y1="30.6976" x2="32.6632" y2="63.0992" gradientUnits="userSpaceOnUse">
<stop stop-color="#7E5EC1"/>
<stop offset="1" stop-color="#250D58"/>
</linearGradient>
<linearGradient id="paint3_linear_526_10883" x1="32.6544" y1="32.0963" x2="32.6544" y2="63.0906" gradientUnits="userSpaceOnUse">
<stop stop-color="#A384E6"/>
<stop offset="1" stop-color="#C0ABEE"/>
</linearGradient>
<linearGradient id="paint4_linear_526_10883" x1="33.4397" y1="35.5269" x2="33.4397" y2="58.2822" gradientUnits="userSpaceOnUse">
<stop stop-color="#7E5EC1"/>
<stop offset="1" stop-color="#250D58"/>
</linearGradient>
<linearGradient id="paint5_linear_526_10883" x1="34.8428" y1="41.5659" x2="34.8428" y2="64.6675" gradientUnits="userSpaceOnUse">
<stop stop-color="#7E5EC1"/>
<stop offset="1" stop-color="#250D58"/>
</linearGradient>
<linearGradient id="paint6_linear_526_10883" x1="34.8482" y1="22.9745" x2="34.8482" y2="60.1575" gradientUnits="userSpaceOnUse">
<stop stop-color="#A384E6"/>
<stop offset="1" stop-color="#C0ABEE"/>
</linearGradient>
<linearGradient id="paint7_linear_526_10883" x1="34.8477" y1="25.3652" x2="34.8477" y2="57.7668" gradientUnits="userSpaceOnUse">
<stop stop-color="#7E5EC1"/>
<stop offset="1" stop-color="#250D58"/>
</linearGradient>
<linearGradient id="paint8_linear_526_10883" x1="34.8477" y1="26.764" x2="34.8477" y2="57.7583" gradientUnits="userSpaceOnUse">
<stop stop-color="#A384E6"/>
<stop offset="1" stop-color="#C0ABEE"/>
</linearGradient>
<linearGradient id="paint9_linear_526_10883" x1="35.6242" y1="30.1943" x2="35.6242" y2="52.9496" gradientUnits="userSpaceOnUse">
<stop stop-color="#7E5EC1"/>
<stop offset="1" stop-color="#250D58"/>
</linearGradient>
<linearGradient id="paint10_linear_526_10883" x1="32.6537" y1="35.6569" x2="32.6537" y2="58.7585" gradientUnits="userSpaceOnUse">
<stop stop-color="#7E5EC1"/>
<stop offset="1" stop-color="#250D58"/>
</linearGradient>
<linearGradient id="paint11_linear_526_10883" x1="32.6548" y1="17.0654" x2="32.6548" y2="54.2484" gradientUnits="userSpaceOnUse">
<stop stop-color="#A384E6"/>
<stop offset="1" stop-color="#C0ABEE"/>
</linearGradient>
<linearGradient id="paint12_linear_526_10883" x1="32.6632" y1="19.4476" x2="32.6632" y2="51.8492" gradientUnits="userSpaceOnUse">
<stop stop-color="#7E5EC1"/>
<stop offset="1" stop-color="#250D58"/>
</linearGradient>
<linearGradient id="paint13_linear_526_10883" x1="32.6544" y1="20.8549" x2="32.6544" y2="51.8492" gradientUnits="userSpaceOnUse">
<stop stop-color="#A384E6"/>
<stop offset="1" stop-color="#C0ABEE"/>
</linearGradient>
<linearGradient id="paint14_linear_526_10883" x1="33.4397" y1="24.2938" x2="33.4397" y2="47.0407" gradientUnits="userSpaceOnUse">
<stop stop-color="#7E5EC1"/>
<stop offset="1" stop-color="#250D58"/>
</linearGradient>
<linearGradient id="paint15_linear_526_10883" x1="32.6537" y1="30.0363" x2="32.6537" y2="53.1379" gradientUnits="userSpaceOnUse">
<stop stop-color="#7E5EC1"/>
<stop offset="1" stop-color="#250D58"/>
</linearGradient>
<linearGradient id="paint16_linear_526_10883" x1="32.6548" y1="11.4448" x2="32.6548" y2="48.6278" gradientUnits="userSpaceOnUse">
<stop stop-color="#A384E6"/>
<stop offset="1" stop-color="#C0ABEE"/>
</linearGradient>
<linearGradient id="paint17_linear_526_10883" x1="32.6632" y1="13.827" x2="32.6632" y2="46.2286" gradientUnits="userSpaceOnUse">
<stop stop-color="#7E5EC1"/>
<stop offset="1" stop-color="#250D58"/>
</linearGradient>
<linearGradient id="paint18_linear_526_10883" x1="32.6544" y1="15.2343" x2="32.6544" y2="46.2286" gradientUnits="userSpaceOnUse">
<stop stop-color="#A384E6"/>
<stop offset="1" stop-color="#C0ABEE"/>
</linearGradient>
<linearGradient id="paint19_linear_526_10883" x1="33.4397" y1="18.6647" x2="33.4397" y2="41.42" gradientUnits="userSpaceOnUse">
<stop stop-color="#7E5EC1"/>
<stop offset="1" stop-color="#250D58"/>
</linearGradient>
<linearGradient id="paint20_linear_526_10883" x1="33.4242" y1="24.5089" x2="33.4242" y2="47.6105" gradientUnits="userSpaceOnUse">
<stop stop-color="#7E5EC1"/>
<stop offset="1" stop-color="#250D58"/>
</linearGradient>
<linearGradient id="paint21_linear_526_10883" x1="33.4253" y1="5.91736" x2="33.4253" y2="43.1004" gradientUnits="userSpaceOnUse">
<stop stop-color="#A384E6"/>
<stop offset="1" stop-color="#C0ABEE"/>
</linearGradient>
<linearGradient id="paint22_linear_526_10883" x1="33.4337" y1="8.29956" x2="33.4337" y2="40.7012" gradientUnits="userSpaceOnUse">
<stop stop-color="#7E5EC1"/>
<stop offset="1" stop-color="#250D58"/>
</linearGradient>
<linearGradient id="paint23_linear_526_10883" x1="33.4249" y1="9.70691" x2="33.4249" y2="40.7012" gradientUnits="userSpaceOnUse">
<stop stop-color="#A384E6"/>
<stop offset="1" stop-color="#C0ABEE"/>
</linearGradient>
<linearGradient id="paint24_linear_526_10883" x1="34.2102" y1="13.1458" x2="34.2102" y2="35.8926" gradientUnits="userSpaceOnUse">
<stop stop-color="#7E5EC1"/>
<stop offset="1" stop-color="#250D58"/>
</linearGradient>
<linearGradient id="paint25_linear_526_10883" x1="34.8373" y1="18.5916" x2="34.8373" y2="41.6932" gradientUnits="userSpaceOnUse">
<stop stop-color="#7E5EC1"/>
<stop offset="1" stop-color="#250D58"/>
</linearGradient>
<linearGradient id="paint26_linear_526_10883" x1="34.8384" y1="0" x2="34.8384" y2="37.183" gradientUnits="userSpaceOnUse">
<stop stop-color="#A384E6"/>
<stop offset="1" stop-color="#BAA3ED"/>
</linearGradient>
<linearGradient id="paint27_linear_526_10883" x1="34.8468" y1="2.39075" x2="34.8468" y2="34.7923" gradientUnits="userSpaceOnUse">
<stop stop-color="#7E5EC1"/>
<stop offset="1" stop-color="#250D58"/>
</linearGradient>
<linearGradient id="paint28_linear_526_10883" x1="34.8467" y1="3.79797" x2="34.8467" y2="34.7923" gradientUnits="userSpaceOnUse">
<stop stop-color="#C0ABEE"/>
<stop offset="1" stop-color="#A384E6"/>
</linearGradient>
<linearGradient id="paint29_linear_526_10883" x1="35.6233" y1="7.22839" x2="35.6233" y2="29.9837" gradientUnits="userSpaceOnUse">
<stop stop-color="#7E5EC1"/>
<stop offset="1" stop-color="#250D58"/>
</linearGradient>
</defs>
</svg>
