<svg width="72" height="102" viewBox="0 0 72 102" fill="none" xmlns="http://www.w3.org/2000/svg">
<path d="M68.8719 14.6721V102L64.6826 100.077V17.8768L35.5663 7.08789V85.8551L31.377 84.8298V0.669678L68.8719 14.6721Z" fill="url(#paint0_linear_526_10931)"/>
<path d="M31.3779 0.668956L36.123 0L72 13.4669L68.8736 14.6728L31.3779 0.668956Z" fill="#9F8ACC"/>
<path d="M68.873 102L71.9994 100.177V13.4669L68.873 14.6728V102Z" fill="#34215C"/>
<path d="M35.5664 7.08789L0.454102 13.9175L2.78602 15.6138L38.8546 8.3489L35.5664 7.08789Z" fill="#9F8ACC"/>
<path d="M38.8547 84.7776V8.34888L2.78613 15.6138V96.3878L38.8547 84.7776Z" fill="url(#paint1_linear_526_10931)"/>
<path d="M0.454102 13.9175L2.78602 15.6138V96.3879L0.454102 95.0601V13.9175Z" fill="#3C2176"/>
<path d="M34.0901 15.6138L8.67188 21.3521V41.4376L34.0901 35.1253V15.6138Z" fill="#3C2176"/>
<path d="M32.8639 34.4136L34.0901 35.1253L8.67188 41.4376V40.4625L32.8639 34.4136Z" fill="#9F8ACC"/>
<path opacity="0.5" d="M34.0895 15.6138V35.1253L32.8633 34.4135V15.8902L34.0895 15.6138Z" fill="#5E419D"/>
<path d="M34.0901 57.9723L8.67188 64.5835V83.7961L34.0901 77.4838V57.9723Z" fill="#3C2176"/>
<path d="M32.8639 76.7719L34.0901 77.4836L8.67188 83.7959V82.8208L32.8639 76.7719Z" fill="#9F8ACC"/>
<path opacity="0.5" d="M34.0895 57.9722V77.4837L32.8633 76.7719V58.2486L34.0895 57.9722Z" fill="#5E419D"/>
<path d="M4.75098 50.3888V58.8096L8.15308 57.9636V49.8142L4.75098 50.3888Z" fill="#7253B7"/>
<path d="M4.751 58.8095L4.39258 58.6913V50.3003L4.751 50.3888V58.8095Z" fill="#9F8ACC"/>
<path d="M8.1531 49.8141L4.751 50.3887L4.39258 50.3002L7.78815 49.6987L8.1531 49.8141Z" fill="#4D3189"/>
<path d="M5.84897 53.4877C5.84897 53.4877 5.07916 54.2517 5.84897 54.9714C6.27415 55.3683 9.07332 55.8094 10.6354 54.8778C11.8747 54.1385 11.9516 53.59 11.604 53.4993C11.2558 53.4078 11.3363 53.78 10.7421 54.0362C10.0992 54.3133 7.50468 54.51 7.2413 54.2546C6.97793 53.9992 7.36755 53.6937 6.98808 53.397C6.39096 52.9297 5.84897 53.4877 5.84897 53.4877Z" fill="#9F8ACC"/>
<defs>
<linearGradient id="paint0_linear_526_10931" x1="34" y1="7.5" x2="67" y2="62.5" gradientUnits="userSpaceOnUse">
<stop stop-color="#492C88"/>
<stop offset="1" stop-color="#7054AC"/>
</linearGradient>
<linearGradient id="paint1_linear_526_10931" x1="3" y1="17" x2="39" y2="85" gradientUnits="userSpaceOnUse">
<stop stop-color="#5E419D"/>
<stop offset="1" stop-color="#7C63B3"/>
</linearGradient>
</defs>
</svg>
