<svg width="141" height="47" viewBox="0 0 141 47" fill="none" xmlns="http://www.w3.org/2000/svg">
<path d="M43.3885 19.5857V26.2735H46.0334C44.3004 38.9252 32.639 47.7768 19.9868 46.0437C7.33469 44.3106 -1.51664 32.6495 0.21631 19.9979C0.902191 14.9899 3.21036 10.3444 6.7878 6.77314C7.41995 6.77723 8.04539 6.90684 8.62732 7.15405C9.12662 7.39979 9.5284 7.80703 9.76783 8.30965C10.1217 9.51966 10.2671 10.7815 10.1982 12.0403V28.824C10.1982 31.6852 10.5536 34.0029 11.4652 35.6959C12.5484 37.5449 14.19 39.0027 16.1542 39.8599C17.7762 40.6553 20.0738 41.0544 23.0472 41.0573C26.6112 41.0573 29.4239 40.304 31.4856 38.7973C33.2939 37.6218 34.6625 35.8808 35.3773 33.8458C35.9101 32.0495 36.1764 29.1295 36.1758 25.0849V12.0038C36.1212 11.019 36.2328 10.0325 36.5052 9.08492C36.7519 8.35675 37.2451 7.7374 37.8994 7.33367C38.3888 7.04989 38.9322 6.87144 39.4943 6.80971C42.952 10.2768 45.2202 14.7518 45.972 19.5901H43.3876L43.3885 19.5857ZM34.0481 12.0038V26.0445C34.0481 29.7011 33.7237 32.2657 33.0752 33.7381C32.4658 35.1629 31.4415 36.3708 30.1355 37.2046C28.7068 38.075 27.0565 38.5115 25.3845 38.4612C23.9751 38.5153 22.5788 38.1721 21.3548 37.4711C20.3603 36.8875 19.562 36.0212 19.0618 34.9827C18.5961 33.9836 18.2145 31.9029 18.2145 28.8217V12.0403C18.0933 6.39574 13.1169 5.83754 13.1169 5.83754L7.81589 5.81647C16.5487 -1.9357 29.6972 -1.93921 38.4338 5.80828H37.142C37.142 5.80828 34.0481 5.91828 34.0481 12.0038Z" fill="#A0C74F"/>
<path d="M137.679 31.8738C135.465 33.8316 132.158 34.8728 127.294 34.8728H116.329V16.7197H122.527V30.0957L126.889 30.0155C129.895 30.0155 131.943 29.4597 133.033 28.3474C134.123 27.2353 134.668 25.3361 134.668 22.6498C134.668 19.9635 134.123 18.0643 133.033 16.9523C131.943 15.84 129.895 15.2844 126.889 15.285H122.527H113.945L116.329 10.5078H127.294C132.159 10.5078 135.465 11.4671 137.679 13.4267C139.894 15.3859 141 18.4589 141 22.6507C141 26.8424 139.893 29.9169 137.679 31.8738ZM92.0158 34.8758H90.5857V10.5093H112.992L110.608 15.2864H96.7834V20.0633H108.228C109.261 20.0633 111.088 20.5814 111.088 22.4523C111.088 24.1243 110.06 24.8405 108.228 24.8405H96.7834V30.0957H108.228C111.764 30.0957 112.995 31.4789 112.995 34.3945V34.8758H92.0158ZM80.574 29.1431V16.7197L74.4633 33.281C74.2939 33.7096 74.0089 34.0827 73.6401 34.3585C73.1455 34.671 72.5779 34.8483 71.9933 34.8728H70.0866C69.5987 34.8445 69.1316 34.6645 68.7505 34.3585C68.3814 34.0829 68.0962 33.7096 67.9274 33.281L61.984 16.7197V29.1431C61.984 32.746 61.1206 34.8758 56.2639 34.8758H55.7871L55.7962 26.2766H58.1709V19.5859H55.8043L55.8125 12.1227L55.7871 10.5093H63.4144C64.7196 10.5093 65.9591 11.1827 66.2403 12.0885L71.1965 26.5759L76.1524 12.0885C76.4362 11.1827 77.617 10.5093 79.1462 10.5093H86.7741V34.8758H86.2987C81.6167 34.8758 80.574 33.2009 80.574 29.1399V29.1431Z" fill="#5E419D"/>
<path d="M57.2139 25.3189H53.3971V29.6177H48.6298V25.3189H44.3419V20.5408H48.6327V16.7197H53.4V20.5408H57.2171V25.3189H57.2139Z" fill="#A0C74F"/>
</svg>
