<svg width="303" height="50" viewBox="0 0 303 50" fill="none" xmlns="http://www.w3.org/2000/svg">
<path d="M45.0245 20.3415V27.2874H47.7691C45.9708 40.4273 33.8698 49.6205 20.7407 47.8205C7.61157 46.0205 -1.57343 33.9095 0.224845 20.7696C0.936581 15.5684 3.33176 10.7436 7.04406 7.03452C7.70004 7.03877 8.34906 7.17337 8.95293 7.43012C9.47105 7.68536 9.88798 8.10831 10.1364 8.63032C10.5037 9.88703 10.6546 11.1975 10.583 12.505V29.9364C10.583 32.908 10.9518 35.3151 11.8977 37.0734C13.0219 38.9938 14.7253 40.5078 16.7635 41.3981C18.4467 42.2243 20.831 42.6387 23.9164 42.6417C27.6147 42.6417 30.5335 41.8593 32.6729 40.2945C34.5494 39.0737 35.9695 37.2655 36.7113 35.1519C37.2642 33.2863 37.5405 30.2536 37.5399 26.0529V12.467C37.4833 11.4442 37.599 10.4197 37.8817 9.43552C38.1378 8.67924 38.6495 8.03599 39.3285 7.61669C39.8363 7.32195 40.4002 7.13661 40.9835 7.0725C44.5716 10.6734 46.9252 15.321 47.7054 20.3461H45.0236L45.0245 20.3415ZM35.332 12.467V27.0495C35.332 30.8473 34.9954 33.5108 34.3224 35.0401C33.6901 36.5198 32.6272 37.7744 31.2719 38.6404C29.7893 39.5443 28.0768 39.9977 26.3418 39.9454C24.8793 40.0016 23.4304 39.6452 22.1602 38.9172C21.1282 38.311 20.2998 37.4113 19.7808 36.3327C19.2975 35.295 18.9015 33.1341 18.9015 29.9339V12.505C18.7757 6.64255 13.6118 6.06281 13.6118 6.06281L8.1109 6.04094C17.1729 -2.0104 30.8171 -2.01405 39.883 6.03243H38.5426C38.5426 6.03243 35.332 6.14667 35.332 12.467V12.467Z" fill="#A0C74F"/>
<path d="M142.869 33.1036C140.571 35.137 137.14 36.2184 132.093 36.2184H120.714V17.3647H127.146V31.2569L131.673 31.1736C134.792 31.1736 136.917 30.5963 138.048 29.4411C139.179 28.2861 139.745 26.3136 139.744 23.5236C139.744 20.7337 139.179 18.7611 138.048 17.6062C136.917 16.451 134.792 15.874 131.673 15.8746H127.146H118.241L120.714 10.9131H132.093C137.141 10.9131 140.571 11.9094 142.869 13.9446C145.167 15.9794 146.315 19.171 146.315 23.5246C146.315 27.8781 145.167 31.0712 142.869 33.1036V33.1036ZM95.4846 36.2214H94.0005V10.9146H117.251L114.778 15.8761H100.432V20.8373H112.307C113.38 20.8373 115.276 21.3754 115.276 23.3186C115.276 25.055 114.209 25.7989 112.307 25.7989H100.432V31.2569H112.307C115.977 31.2569 117.254 32.6934 117.254 35.7216V36.2214H95.4846V36.2214ZM83.6114 30.2675V17.3647L77.2703 34.5651C77.0946 35.0103 76.7989 35.3977 76.4162 35.6842C75.9029 36.0087 75.3139 36.1929 74.7073 36.2184H72.7287C72.2224 36.1889 71.7376 36.002 71.3422 35.6842C70.9592 35.398 70.6632 35.0103 70.4881 34.5651L64.3206 17.3647V30.2675C64.3206 34.0094 63.4246 36.2214 58.3849 36.2214H57.8901L57.8995 27.2904H60.3638V20.3415H57.908L57.9165 12.5903L57.8901 10.9146H65.805C67.1594 10.9146 68.4456 11.6141 68.7374 12.5548L73.8804 27.6013L79.0231 12.5548C79.3177 11.6141 80.543 10.9146 82.1298 10.9146H90.0452V36.2214H89.5519C84.6934 36.2214 83.6114 34.4819 83.6114 30.2642V30.2675V30.2675Z" fill="#5E419D"/>
<path d="M59.3714 26.2957H55.4107V30.7604H50.4636V26.2957H46.0142V21.3333H50.4667V17.3647H55.4137V21.3333H59.3747V26.2957H59.3714Z" fill="#A0C74F"/>
<path d="M176.251 3.29448H179.652L181.053 7.48119L182.436 3.29448H185.622L182.299 11.138C182.025 11.7718 181.789 12.2449 181.586 12.5573C181.384 12.8669 181.082 13.1248 180.686 13.326C180.287 13.5268 179.74 13.6262 179.044 13.6262C178.676 13.6262 178.041 13.5742 177.143 13.4679V11.3674C177.674 11.4242 178.06 11.45 178.303 11.45C179.027 11.45 179.466 11.1805 179.624 10.6412L176.251 3.29448V3.29448ZM186.7 3.29448H191.904C193.036 3.29448 193.885 3.56399 194.449 4.10575C195.012 4.64508 195.295 5.41624 195.295 6.41195C195.295 7.43865 194.989 8.2405 194.373 8.8175C193.757 9.39481 192.819 9.68316 191.557 9.68316H189.845V13.4536H186.7V3.29448V3.29448ZM189.845 7.62551H190.611C191.215 7.62551 191.637 7.52129 191.882 7.31073C192.125 7.10016 192.248 6.83065 192.248 6.50432C192.248 6.18497 192.142 5.91273 191.929 5.69304C191.72 5.47063 191.321 5.35942 190.736 5.35942H189.845V7.62551V7.62551ZM203.166 11.7767H199.6L199.11 13.4536H195.911L199.718 3.29448H203.131L206.94 13.4536H203.664L203.166 11.7767ZM202.511 9.57925L201.39 5.92701L200.277 9.57925H202.511V9.57925ZM217.251 13.4536H214.12V5.78997H211.672V8.91443C211.672 10.1988 211.606 11.1425 211.469 11.7457C211.332 12.3491 211.016 12.7912 210.516 13.0729C210.016 13.3542 209.21 13.4961 208.094 13.4961C207.752 13.4961 207.36 13.4585 206.919 13.3849V11.3273H207.389C207.813 11.3273 208.113 11.2325 208.287 11.0456C208.462 10.8587 208.549 10.5157 208.549 10.0168V3.29448H217.251V13.4536V13.4536ZM222.461 7.20894H224.133C225.666 7.20894 226.803 7.48118 227.546 8.02507C228.287 8.56683 228.657 9.41122 228.657 10.5561C228.657 11.495 228.317 12.2118 227.638 12.7086C226.959 13.2054 225.985 13.4536 224.713 13.4536H219.335V3.29448H222.461V7.20894ZM222.461 11.2705H224.062C225.044 11.2705 225.534 10.9156 225.534 10.2037C225.534 9.57925 225.044 9.26689 224.062 9.26689H222.461V11.2705V11.2705ZM237.021 9.30244L239.764 10.135C239.58 10.9061 239.29 11.5494 238.894 12.0675C238.498 12.5855 238.005 12.9757 237.417 13.2385C236.83 13.5031 236.082 13.6335 235.177 13.6335C234.075 13.6335 233.174 13.4724 232.478 13.1531C231.78 12.8316 231.176 12.2662 230.669 11.4573C230.164 10.6482 229.91 9.61449 229.91 8.35383C229.91 6.67204 230.355 5.37826 231.247 4.47705C232.138 3.57341 233.4 3.12189 235.03 3.12189C236.306 3.12189 237.309 3.37955 238.04 3.89761C238.771 4.41567 239.314 5.21023 239.668 6.2819L236.903 6.89932C236.806 6.58939 236.705 6.36242 236.599 6.21809C236.424 5.97897 236.21 5.79453 235.957 5.66448C235.703 5.53444 235.42 5.47063 235.106 5.47063C234.398 5.47063 233.853 5.75685 233.476 6.3293C233.19 6.75499 233.047 7.42193 233.047 8.33256C233.047 9.46075 233.219 10.2319 233.559 10.6506C233.901 11.0693 234.379 11.2775 234.995 11.2775C235.594 11.2775 236.047 11.1094 236.354 10.7712C236.66 10.4355 236.882 9.94569 237.021 9.30244V9.30244ZM250.496 13.4536H246.973L245.755 10.8281C245.465 10.2082 245.239 9.8205 245.079 9.66676C244.916 9.51058 244.694 9.43492 244.409 9.43492V13.4536H241.283V3.29448H244.409V7.19496C244.68 7.18311 244.892 7.08618 245.043 6.90388C245.196 6.7243 245.432 6.20867 245.755 5.35243C245.991 4.72074 246.227 4.26648 246.468 3.99211C246.706 3.71561 247.095 3.51902 247.635 3.39839C248.173 3.27777 249.02 3.21882 250.171 3.21882V5.36641H250.013C249.477 5.36641 249.081 5.4682 248.824 5.67147C248.565 5.87505 248.355 6.20381 248.187 6.65806C248.022 7.11444 247.843 7.45262 247.652 7.67747C247.461 7.90201 247.199 8.08189 246.869 8.21437C247.319 8.36325 247.713 8.61879 248.051 8.98067C248.385 9.34255 248.744 9.90801 249.121 10.6743L250.496 13.4536V13.4536ZM261.311 3.29448V13.4536H258.368V7.87619L254.572 13.4536H251.622V3.29448H254.572V8.91443L258.389 3.29448H261.311ZM273.1 3.29448V13.4536H270.157V7.87619L266.361 13.4536H263.411V3.29448H266.361V8.91443L270.178 3.29448H273.1ZM270.805 0.791992C270.709 1.37599 270.428 1.84452 269.965 2.20397C269.503 2.56129 268.951 2.74087 268.312 2.74087C267.675 2.74087 267.126 2.56129 266.658 2.19941C266.194 1.83966 265.916 1.37143 265.824 0.791992H267.027C267.22 1.37143 267.637 1.66008 268.284 1.66008C268.975 1.66008 269.414 1.37143 269.602 0.791992H270.805V0.791992ZM177.171 20.4618H181.289L182.879 26.6424L184.462 20.4618H188.566V30.621H186.009V22.8744L184.026 30.621H181.712L179.735 22.8744V30.621H177.171V20.4618ZM190.557 20.4618H198.944V22.6307H193.694V24.2462H198.565V26.3185H193.694V28.3196H199.098V30.621H190.557V20.4618ZM211.41 32.8327H208.889V30.621H202.421V32.8327H199.905V28.2792H200.949C201.534 26.6378 201.827 24.788 201.827 22.7279V20.4618H210.318V28.2792H211.41V32.8327V32.8327ZM207.188 28.2792V22.9573H204.674V23.0874C204.674 24.4924 204.436 26.2237 203.961 28.2792H207.188ZM222.336 20.4618V30.621H219.392V25.0435L215.597 30.621H212.646V20.4618H215.597V26.0818L219.414 20.4618H222.336V20.4618ZM235.224 32.8327H232.708V30.621H224.442V20.4618H227.568V28.1255H231.009V20.4618H234.132V28.2792H235.224V32.8327ZM246.294 20.4618V30.621H243.35V25.0435L239.555 30.621H236.604V20.4618H239.555V26.0818L243.371 20.4618H246.294ZM248.4 20.4618H251.53V24.0168H254.953V20.4618H258.097V30.621H254.953V26.5123H251.53V30.621H248.4V20.4618ZM266.921 26.4698L269.664 27.3023C269.48 28.0735 269.19 28.7168 268.794 29.2348C268.397 29.7529 267.904 30.143 267.317 30.4058C266.73 30.6705 265.982 30.8008 265.076 30.8008C263.975 30.8008 263.074 30.6398 262.378 30.3205C261.68 29.999 261.076 29.4335 260.569 28.6247C260.064 27.8155 259.809 26.7819 259.809 25.5212C259.809 23.8394 260.255 22.5456 261.147 21.6444C262.038 20.7408 263.3 20.2892 264.93 20.2892C266.206 20.2892 267.208 20.5469 267.94 21.065C268.671 21.583 269.213 22.3776 269.567 23.4493L266.803 24.0667C266.706 23.7568 266.605 23.5298 266.498 23.3854C266.324 23.1463 266.109 22.9619 265.857 22.8318C265.602 22.7018 265.319 22.638 265.005 22.638C264.298 22.638 263.753 22.9242 263.376 23.4967C263.09 23.9223 262.946 24.5893 262.946 25.4999C262.946 26.6281 263.119 27.3993 263.458 27.818C263.8 28.2367 264.279 28.4448 264.895 28.4448C265.494 28.4448 265.947 28.2768 266.253 27.9386C266.56 27.6028 266.781 27.113 266.921 26.4698V26.4698ZM280.396 30.621H276.872L275.655 27.9954C275.365 27.3756 275.138 26.9879 274.978 26.8341C274.815 26.6779 274.594 26.6023 274.308 26.6023V30.621H271.183V20.4618H274.308V24.3623C274.579 24.3505 274.792 24.2535 274.943 24.0712C275.096 23.8917 275.332 23.376 275.655 22.5198C275.891 21.8881 276.127 21.4338 276.367 21.1595C276.605 20.883 276.995 20.6864 277.535 20.5657C278.073 20.4451 278.919 20.3862 280.071 20.3862V22.5338H279.913C279.377 22.5338 278.981 22.6356 278.724 22.8388C278.464 23.0424 278.254 23.3712 278.087 23.8254C277.922 24.2818 277.743 24.62 277.551 24.8448C277.361 25.0694 277.098 25.2492 276.768 25.3817C277.219 25.5306 277.613 25.7861 277.95 26.148C278.285 26.5099 278.643 27.0754 279.021 27.8417L280.396 30.621V30.621ZM291.211 20.4618V30.621H288.267V25.0435L284.472 30.621H281.521V20.4618H284.472V26.0818L288.288 20.4618H291.211ZM303 20.4618V30.621H300.056V25.0435L296.261 30.621H293.31V20.4618H296.261V26.0818L300.077 20.4618H303ZM300.705 17.9594C300.608 18.5433 300.327 19.0119 299.865 19.3713C299.403 19.7287 298.851 19.9082 298.211 19.9082C297.575 19.9082 297.025 19.7287 296.558 19.3668C296.094 19.007 295.815 18.5388 295.723 17.9594H296.926C297.119 18.5388 297.537 18.8274 298.183 18.8274C298.874 18.8274 299.313 18.5388 299.502 17.9594H300.705V17.9594ZM186.417 47.7883H182.893L181.676 45.1628C181.386 44.5429 181.16 44.1552 180.999 44.0015C180.837 43.8453 180.615 43.7696 180.329 43.7696V47.7883H177.204V37.6292H180.329V41.5297C180.6 41.5178 180.813 41.4209 180.964 41.2386C181.117 41.059 181.353 40.5434 181.676 39.6871C181.912 39.0555 182.148 38.6012 182.388 38.3268C182.627 38.0503 183.016 37.8537 183.556 37.7331C184.094 37.6125 184.941 37.5535 186.092 37.5535V39.7011H185.934C185.398 39.7011 185.002 39.8029 184.745 40.0062C184.485 40.2098 184.276 40.5385 184.108 40.9928C183.943 41.4492 183.764 41.7873 183.573 42.0122C183.382 42.2367 183.12 42.4166 182.79 42.5491C183.24 42.698 183.634 42.9535 183.971 43.3154C184.306 43.6773 184.665 44.2427 185.042 45.009L186.417 47.7883ZM187.141 42.7147C187.141 41.0566 187.604 39.7649 188.524 38.8425C189.446 37.9178 190.729 37.4566 192.373 37.4566C194.06 37.4566 195.359 37.9106 196.272 38.8191C197.183 39.7248 197.64 40.9973 197.64 42.6317C197.64 43.8192 197.439 44.7939 197.041 45.5529C196.642 46.3122 196.067 46.9038 195.314 47.3271C194.559 47.7503 193.623 47.9609 192.498 47.9609C191.357 47.9609 190.411 47.7789 189.66 47.4146C188.913 47.0478 188.307 46.4708 187.84 45.6808C187.375 44.8908 187.141 43.9021 187.141 42.7147V42.7147ZM190.274 42.729C190.274 43.7554 190.462 44.491 190.842 44.9404C191.222 45.3876 191.741 45.6122 192.394 45.6122C193.067 45.6122 193.588 45.3922 193.956 44.9546C194.324 44.5147 194.51 43.7271 194.51 42.5916C194.51 41.6336 194.316 40.936 193.932 40.496C193.548 40.0536 193.026 39.8336 192.366 39.8336C191.736 39.8336 191.229 40.056 190.847 40.5054C190.465 40.9524 190.274 41.6953 190.274 42.729V42.729ZM208.634 47.7883H205.504V40.1247H203.056V43.2491C203.056 44.5335 202.99 45.4773 202.853 46.0804C202.716 46.6838 202.4 47.1259 201.9 47.4076C201.4 47.689 200.593 47.8308 199.477 47.8308C199.136 47.8308 198.744 47.7932 198.303 47.7196V45.662H198.772C199.197 45.662 199.496 45.5672 199.671 45.3803C199.846 45.1935 199.933 44.8504 199.933 44.3515V37.6292H208.634V47.7883ZM220.015 47.7883H216.885V40.1247H214.437V43.2491C214.437 44.5335 214.371 45.4773 214.234 46.0804C214.097 46.6838 213.781 47.1259 213.281 47.4076C212.781 47.689 211.974 47.8308 210.858 47.8308C210.516 47.8308 210.125 47.7932 209.684 47.7196V45.662H210.153C210.578 45.662 210.877 45.5672 211.052 45.3803C211.226 45.1935 211.314 44.8504 211.314 44.3515V37.6292H220.015V47.7883ZM222.081 37.6292H230.469V39.7981H225.218V41.4136H230.089V43.4858H225.218V45.487H230.622V47.7883H222.081V37.6292ZM242.934 50H240.413V47.7883H233.946V50H231.429V45.4466H232.474C233.059 43.8052 233.351 41.9554 233.351 39.8953V37.6292H241.843V45.4466H242.934V50ZM238.713 45.4466V40.1247H236.198V40.2547C236.198 41.6597 235.96 43.391 235.486 45.4466H238.713ZM258.401 47.7883H254.875L253.66 45.1628C253.37 44.5429 253.143 44.1552 252.983 44.0015C252.82 43.8453 252.598 43.7696 252.313 43.7696V47.7883H249.188V43.7696C248.897 43.7696 248.674 43.8453 248.511 44.0015C248.35 44.1552 248.126 44.5429 247.841 45.1628L246.624 47.7883H243.1L244.475 45.009C244.852 44.2379 245.211 43.6703 245.551 43.3084C245.888 42.9465 246.279 42.6934 246.72 42.5491C246.395 42.4166 246.133 42.2367 245.94 42.0122C245.746 41.7873 245.569 41.4492 245.404 40.9928C245.242 40.5385 245.032 40.2098 244.772 40.0062C244.515 39.8029 244.119 39.7011 243.583 39.7011H243.425V37.5535C244.576 37.5535 245.423 37.6125 245.961 37.7331C246.501 37.8537 246.888 38.0503 247.126 38.3268C247.362 38.6012 247.6 39.0555 247.841 39.6871C248.159 40.5434 248.393 41.059 248.546 41.2386C248.697 41.4209 248.912 41.5178 249.188 41.5297V37.6292H252.313V41.5297C252.584 41.5178 252.796 41.4209 252.948 41.2386C253.101 41.059 253.337 40.5434 253.66 39.6871C253.893 39.0555 254.131 38.6012 254.372 38.3268C254.61 38.0503 254.999 37.8537 255.54 37.7331C256.078 37.6125 256.924 37.5535 258.075 37.5535V39.7011H257.917C257.382 39.7011 256.986 39.8029 256.728 40.0062C256.469 40.2098 256.257 40.5385 256.092 40.9928C255.927 41.4492 255.747 41.7873 255.556 42.0122C255.365 42.2367 255.106 42.4166 254.778 42.5491C255.226 42.698 255.618 42.9535 255.955 43.3154C256.29 43.6773 256.646 44.2427 257.026 45.009L258.401 47.7883V47.7883Z" fill="#5E419D"/>
<path d="M162.063 3.35376H159.602V47.8531H162.063V3.35376Z" fill="#A0C74F"/>
</svg>
