<svg width="13" height="13" viewBox="0 0 13 13" fill="none" xmlns="http://www.w3.org/2000/svg">
<path fill-rule="evenodd" clip-rule="evenodd" d="M12.993 9.31557C12.9866 10.051 12.7577 10.7671 12.3365 11.3699C11.9154 11.9727 11.3216 12.4338 10.6335 12.6925C10.0481 12.9111 9.42615 13.0149 8.80154 12.9983H3.91893C3.13134 13.0163 2.3568 12.7949 1.69762 12.3634C0.901155 11.8701 0.32844 11.0855 0.101234 10.1764C0.0359481 9.89864 0.00199126 9.61448 0 9.3292V3.76912C0 2.81485 0.266713 1.95795 0.946151 1.26659C1.588 0.573556 2.45979 0.137514 3.39913 0.0396742C3.86389 -0.00216877 4.32865 -0.000848874 4.78753 0.000454309C4.9053 0.000788779 5.02269 0.00112215 5.13958 0.000724398H8.86968C9.71265 0.000724398 10.5225 0.137049 11.2428 0.604446C12.0417 1.08171 12.6255 1.84918 12.8723 2.74668C12.9469 3.05275 12.9854 3.36647 12.9872 3.68148C13.0144 5.55891 12.9891 7.43796 12.993 9.31557ZM6.50194 9.27636C5.90802 9.26753 5.32997 9.08321 4.8405 8.74658C4.35102 8.40995 3.97199 7.93604 3.75107 7.38448C3.53014 6.83291 3.4772 6.2283 3.59888 5.64671C3.72057 5.06512 4.01147 4.53251 4.43497 4.11587C4.85848 3.69923 5.39569 3.41718 5.97903 3.30517C6.56237 3.19317 7.16579 3.25622 7.7134 3.4864C8.26101 3.71658 8.72836 4.10361 9.05665 4.5988C9.38494 5.094 9.55952 5.67525 9.55844 6.26944C9.54919 7.07284 9.2226 7.83995 8.64995 8.40331C8.0773 8.96668 7.3051 9.28053 6.50194 9.27636ZM4.42469 6.2636C4.41696 6.67731 4.53253 7.08396 4.75667 7.43172C4.98081 7.77949 5.30338 8.05263 5.68327 8.21634C6.06316 8.38004 6.48317 8.42691 6.88978 8.35096C7.29639 8.27501 7.67119 8.07968 7.96642 7.78986C8.26166 7.50005 8.46395 7.12887 8.54754 6.72362C8.63112 6.31837 8.5922 5.89741 8.43575 5.51437C8.27929 5.13132 8.01238 4.80355 7.66903 4.57281C7.32567 4.34207 6.92142 4.21881 6.50778 4.21873C5.96139 4.21662 5.4362 4.43015 5.04621 4.81299C4.65622 5.19582 4.43289 5.71707 4.42469 6.2636ZM10.4343 3.34753C10.5075 3.2452 10.5491 3.12355 10.5537 2.99776C10.5543 2.82611 10.4883 2.66092 10.3695 2.53703C10.2507 2.41314 10.0885 2.34022 9.91705 2.33366C9.79122 2.33298 9.66798 2.36939 9.56271 2.43835C9.45744 2.5073 9.37481 2.60575 9.32512 2.7214C9.27544 2.83705 9.26091 2.96477 9.28335 3.08863C9.30579 3.21249 9.3642 3.32699 9.45129 3.41785C9.53839 3.5087 9.6503 3.57188 9.77307 3.59949C9.89583 3.62711 10.024 3.61794 10.1416 3.57313C10.2592 3.52832 10.361 3.44985 10.4343 3.34753Z" fill="white"/>
</svg>
