<svg width="120" height="40" viewBox="0 0 120 40" fill="none" xmlns="http://www.w3.org/2000/svg">
<path d="M36.9267 16.683V22.3797H39.1776C37.7028 33.1563 27.7782 40.6961 17.0104 39.2198C6.2426 37.7436 -1.29045 27.8108 0.184406 17.0341C0.768134 12.7683 2.73253 8.81131 5.77716 5.76934C6.31517 5.77282 6.84745 5.88322 7.34271 6.09379C7.76765 6.30312 8.10959 6.65001 8.31336 7.07813C8.61454 8.10882 8.7383 9.18361 8.67965 10.2559V24.5522C8.67965 26.9894 8.98208 28.9635 9.75789 30.4057C10.6798 31.9806 12.0769 33.2224 13.7486 33.9525C15.129 34.6301 17.0844 34.97 19.6149 34.9725C22.6481 34.9725 25.0419 34.3308 26.7966 33.0474C28.3356 32.0461 29.5003 30.5632 30.1086 28.8297C30.5621 27.2996 30.7887 24.8124 30.7883 21.3672V10.2248C30.7418 9.38596 30.8367 8.54566 31.0686 7.73851C31.2785 7.11825 31.6983 6.5907 32.2552 6.2468C32.6716 6.00508 33.1341 5.85307 33.6125 5.80049C36.5552 8.75375 38.4856 12.5655 39.1255 16.6868H36.926L36.9267 16.683ZM28.9774 10.2248V22.1846C28.9774 25.2993 28.7013 27.4838 28.1494 28.738C27.6308 29.9516 26.7591 30.9806 25.6475 31.6908C24.4316 32.4322 23.0271 32.804 21.6042 32.7611C20.4047 32.8072 19.2163 32.5149 18.1746 31.9178C17.3282 31.4207 16.6488 30.6828 16.2231 29.7981C15.8268 28.9471 15.502 27.1748 15.502 24.5502V10.2559C15.3989 5.44787 11.1637 4.9724 11.1637 4.9724L6.65213 4.95445C14.0843 -1.64883 25.2745 -1.65182 32.7099 4.94748H31.6105C31.6105 4.94748 28.9774 5.04118 28.9774 10.2248Z" fill="#A0C74F"/>
<path d="M117.174 27.1499C115.289 28.8176 112.475 29.7045 108.335 29.7045H99.0034V14.2417H104.278V25.6353L107.991 25.567C110.549 25.567 112.292 25.0935 113.22 24.1461C114.147 23.1989 114.611 21.5811 114.611 19.2929C114.611 17.0048 114.147 15.387 113.22 14.4398C112.292 13.4923 110.549 13.0191 107.991 13.0196H104.278H96.9747L99.0034 8.95041H108.335C112.476 8.95041 115.289 9.76753 117.174 11.4367C119.058 13.1056 120 15.7231 120 19.2937C120 22.8642 119.058 25.483 117.174 27.1499ZM78.3113 29.707H77.0941V8.95166H96.1633L94.1346 13.0208H82.3688V17.0898H92.1085C92.988 17.0898 94.5429 17.5311 94.5429 19.1247C94.5429 20.5489 93.6684 21.1589 92.1085 21.1589H82.3688V25.6353H92.1085C95.1181 25.6353 96.1658 26.8135 96.1658 29.297V29.707H78.3113ZM68.5736 24.8239V14.2417L63.3729 28.3486C63.2288 28.7136 62.9863 29.0314 62.6724 29.2664C62.2514 29.5325 61.7684 29.6835 61.2709 29.7045H59.6482C59.2329 29.6803 58.8353 29.527 58.511 29.2664C58.1969 29.0316 57.9541 28.7136 57.8105 28.3486L52.7523 14.2417V24.8239C52.7523 27.8928 52.0174 29.707 47.8841 29.707H47.4783L47.486 22.3822H49.5071V16.6831H47.493L47.5 10.326L47.4783 8.95166H53.9697C55.0805 8.95166 56.1354 9.52531 56.3747 10.2968L60.5927 22.6372L64.8105 10.2968C65.052 9.52531 66.057 8.95166 67.3584 8.95166H73.8502V29.707H73.4457C69.4609 29.707 68.5736 28.2803 68.5736 24.8212V24.8239Z" fill="#5E419D"/>
<path d="M48.6933 21.5663H45.4449V25.2281H41.3876V21.5663H37.7384V17.4964H41.3901V14.2416H45.4474V17.4964H48.696V21.5663H48.6933Z" fill="#A0C74F"/>
</svg>
