<svg width="17" height="16" viewBox="0 0 17 16" fill="none" xmlns="http://www.w3.org/2000/svg">
<g clip-path="url(#clip0_642_15001)">
<path d="M1.33398 3.81945C1.33398 3.46951 1.47338 3.1339 1.72151 2.88646C1.96964 2.63901 2.30617 2.5 2.65708 2.5H13.2419C13.5928 2.5 13.9293 2.63901 14.1774 2.88646C14.4256 3.1339 14.565 3.46951 14.565 3.81945V10.4167C14.565 10.7666 14.4256 11.1022 14.1774 11.3497C13.9293 11.5971 13.5928 11.7361 13.2419 11.7361H2.65708C2.30617 11.7361 1.96964 11.5971 1.72151 11.3497C1.47338 11.1022 1.33398 10.7666 1.33398 10.4167V3.81945Z" stroke="white" stroke-linecap="round" stroke-linejoin="round"/>
<path d="M15.9462 4.65039C16.1943 4.89783 16.3337 5.23344 16.3337 5.58338V12.1806C16.3337 12.5306 16.1943 12.8662 15.9462 13.1136C15.698 13.361 15.3615 13.5001 15.0106 13.5001H4.42581C4.0749 13.5001 3.73836 13.361 3.49023 13.1136" stroke="white" stroke-linecap="round" stroke-linejoin="round"/>
<path d="M7.94949 9.09713C9.04558 9.09713 9.93414 8.21103 9.93414 7.11796C9.93414 6.0249 9.04558 5.13879 7.94949 5.13879C6.8534 5.13879 5.96484 6.0249 5.96484 7.11796C5.96484 8.21103 6.8534 9.09713 7.94949 9.09713Z" stroke="white" stroke-linecap="round" stroke-linejoin="round"/>
<path d="M1.33398 5.13889C2.0358 5.13889 2.70887 4.86087 3.20513 4.36598C3.70138 3.87109 3.98018 3.19988 3.98018 2.5" stroke="white" stroke-linecap="round" stroke-linejoin="round"/>
<path d="M11.918 11.7361C11.918 11.0362 12.1968 10.365 12.693 9.87008C13.1893 9.37519 13.8623 9.09717 14.5642 9.09717" stroke="white" stroke-linecap="round" stroke-linejoin="round"/>
</g>
<defs>
<clipPath id="clip0_642_15001">
<rect width="16" height="16" fill="white" transform="translate(0.833984)"/>
</clipPath>
</defs>
</svg>
