<svg width="13" height="13" viewBox="0 0 13 13" fill="none" xmlns="http://www.w3.org/2000/svg">
<g clip-path="url(#clip0_896_4417)">
<path d="M5.8243 9.16492L5.35036 9.05425C4.34149 8.95967 3.38728 8.58072 2.61441 7.96772C2.46651 7.86199 2.36042 7.71335 2.31281 7.54517C2.28797 7.41317 2.29752 7.27753 2.34064 7.1497C2.38376 7.02187 2.45919 6.90562 2.56056 6.81076C2.69481 6.67286 2.87836 6.58551 3.07672 6.56513C3.27507 6.54475 3.47457 6.59275 3.6377 6.70009C3.8639 6.82082 4.05778 6.97172 4.28398 7.09245C4.78815 7.33314 5.33621 7.48329 5.8997 7.53511C6.73795 7.6361 7.58986 7.52492 8.36636 7.21318C8.63008 7.09646 8.88237 6.95844 9.12036 6.80069C9.33319 6.65498 9.58898 6.57417 9.85282 6.5693C10.0126 6.57176 10.1681 6.61785 10.3002 6.70187C10.4322 6.78589 10.5351 6.90418 10.596 7.04215C10.6476 7.12656 10.6807 7.21969 10.6934 7.31613C10.7061 7.41258 10.6982 7.51043 10.6702 7.604C10.6421 7.69758 10.5945 7.78503 10.53 7.86128C10.4655 7.93753 10.3854 8.00106 10.2944 8.0482C9.90139 8.36751 9.45347 8.62261 8.96956 8.80274C8.4965 8.96763 8.00512 9.08237 7.50464 9.1448H7.1815L7.27844 9.25546L9.77741 11.5895C9.90771 11.6978 9.997 11.8425 10.0319 12.0021C10.0669 12.1616 10.0456 12.3275 9.9713 12.4748C9.90307 12.6263 9.78959 12.7561 9.64441 12.8489C9.49923 12.9417 9.32851 12.9934 9.15267 12.998C9.0515 12.9973 8.95155 12.9773 8.85894 12.9392C8.76633 12.9012 8.68301 12.8458 8.6141 12.7767L6.8045 11.1167L6.62139 10.9054C6.56753 10.845 6.52444 10.845 6.45981 10.9054L5.45807 11.841C5.11338 12.163 4.77947 12.4849 4.38093 12.7968C4.23636 12.9271 4.04328 12.9999 3.84236 12.9999C3.64144 12.9999 3.44836 12.9271 3.30378 12.7968C3.14881 12.6714 3.04273 12.5016 3.00218 12.3139C2.97807 12.2006 2.98412 12.0836 3.0198 11.9731C3.05549 11.8626 3.11972 11.7619 3.20684 11.6801L4.55327 10.4225L5.73813 9.26552L5.8243 9.16492Z" fill="#5E419D"/>
<path d="M6.49259 1.49698e-05C7.19105 -0.00195261 7.87437 0.190079 8.4557 0.551705C9.03703 0.91333 9.49012 1.42822 9.7574 2.03094C10.0247 2.63365 10.094 3.29698 9.95672 3.93661C9.81939 4.57625 9.48156 5.1633 8.98615 5.62318C8.49074 6.08305 7.86014 6.39497 7.17447 6.51929C6.48881 6.64362 5.77905 6.57474 5.1354 6.3214C4.49176 6.06806 3.94328 5.64171 3.55969 5.09654C3.17609 4.55136 2.9747 3.91197 2.98111 3.25963C2.9868 2.39328 3.35927 1.56423 4.01718 0.953502C4.6751 0.342778 5.56501 -1.33435e-06 6.49259 1.49698e-05ZM4.74762 3.26969C4.74342 3.59156 4.84137 3.90739 5.02911 4.17734C5.21685 4.44729 5.48598 4.65926 5.80254 4.78654C6.11911 4.91381 6.46893 4.95067 6.8079 4.89248C7.14687 4.83429 7.45979 4.68365 7.70722 4.45957C7.95464 4.23548 8.12547 3.94797 8.19817 3.63332C8.27087 3.31866 8.24218 2.99094 8.11572 2.6915C7.98925 2.39205 7.77068 2.13429 7.48757 1.95072C7.20446 1.76714 6.86949 1.66599 6.52491 1.66C6.29485 1.65601 6.06622 1.69455 5.85217 1.7734C5.63813 1.85226 5.44289 1.96988 5.27771 2.11949C5.11252 2.2691 4.98065 2.44774 4.88967 2.64514C4.7987 2.84254 4.75042 3.05479 4.74762 3.26969Z" fill="#5E419D"/>
</g>
<defs>
<clipPath id="clip0_896_4417">
<rect width="13" height="13" fill="white"/>
</clipPath>
</defs>
</svg>
