<svg width="13" height="13" viewBox="0 0 13 13" fill="none" xmlns="http://www.w3.org/2000/svg">
<g clip-path="url(#clip0_896_6018)">
<path d="M5.82418 9.16492L5.35023 9.05425C4.34136 8.95967 3.38716 8.58072 2.61429 7.96772C2.46639 7.86199 2.3603 7.71335 2.31269 7.54517C2.28785 7.41317 2.2974 7.27753 2.34052 7.1497C2.38364 7.02187 2.45907 6.90562 2.56043 6.81076C2.69468 6.67286 2.87824 6.58551 3.07659 6.56513C3.27495 6.54475 3.47444 6.59275 3.63758 6.70009C3.86378 6.82082 4.05766 6.97172 4.28386 7.09245C4.78803 7.33314 5.33609 7.48329 5.89958 7.53511C6.73783 7.6361 7.58973 7.52492 8.36624 7.21318C8.62995 7.09646 8.88225 6.95844 9.12024 6.80069C9.33307 6.65498 9.58886 6.57417 9.85269 6.5693C10.0125 6.57176 10.168 6.61785 10.3 6.70187C10.4321 6.78589 10.535 6.90418 10.5959 7.04215C10.6475 7.12656 10.6806 7.21969 10.6933 7.31613C10.706 7.41258 10.6981 7.51043 10.6701 7.604C10.642 7.69758 10.5944 7.78503 10.5299 7.86128C10.4654 7.93753 10.3853 8.00106 10.2943 8.0482C9.90127 8.36751 9.45335 8.62261 8.96944 8.80274C8.49638 8.96763 8.005 9.08237 7.50452 9.1448H7.18138L7.27832 9.25546L9.77729 11.5895C9.90759 11.6978 9.99688 11.8425 10.0318 12.0021C10.0668 12.1616 10.0455 12.3275 9.97118 12.4748C9.90295 12.6263 9.78946 12.7561 9.64429 12.8489C9.49911 12.9417 9.32839 12.9934 9.15255 12.998C9.05138 12.9973 8.95142 12.9773 8.85882 12.9392C8.76621 12.9012 8.68289 12.8458 8.61398 12.7767L6.80438 11.1167L6.62126 10.9054C6.56741 10.845 6.52432 10.845 6.45969 10.9054L5.45795 11.841C5.11326 12.163 4.77935 12.4849 4.38081 12.7968C4.23623 12.9271 4.04315 12.9999 3.84223 12.9999C3.64131 12.9999 3.44823 12.9271 3.30366 12.7968C3.14868 12.6714 3.04261 12.5016 3.00206 12.3139C2.97794 12.2006 2.98399 12.0836 3.01968 11.9731C3.05537 11.8626 3.1196 11.7619 3.20672 11.6801L4.55315 10.4225L5.73801 9.26552L5.82418 9.16492Z" fill="white"/>
<path d="M6.49247 1.49698e-05C7.19093 -0.00195261 7.87425 0.190079 8.45558 0.551705C9.03691 0.91333 9.49 1.42822 9.75727 2.03094C10.0245 2.63365 10.0939 3.29698 9.9566 3.93661C9.81927 4.57625 9.48144 5.1633 8.98603 5.62318C8.49062 6.08305 7.86001 6.39497 7.17435 6.51929C6.48869 6.64362 5.77893 6.57474 5.13528 6.3214C4.49163 6.06806 3.94316 5.64171 3.55956 5.09654C3.17597 4.55136 2.97458 3.91197 2.98098 3.25963C2.98667 2.39328 3.35914 1.56423 4.01706 0.953502C4.67497 0.342778 5.56489 -1.33435e-06 6.49247 1.49698e-05ZM4.7475 3.26969C4.7433 3.59156 4.84125 3.90739 5.02899 4.17734C5.21673 4.44729 5.48586 4.65926 5.80242 4.78654C6.11898 4.91381 6.46881 4.95067 6.80778 4.89248C7.14674 4.83429 7.45967 4.68365 7.70709 4.45957C7.95451 4.23548 8.12535 3.94797 8.19805 3.63332C8.27075 3.31866 8.24206 2.99094 8.11559 2.6915C7.98913 2.39205 7.77056 2.13429 7.48745 1.95072C7.20434 1.76714 6.86937 1.66599 6.52478 1.66C6.29473 1.65601 6.0661 1.69455 5.85205 1.7734C5.63801 1.85226 5.44277 1.96988 5.27759 2.11949C5.1124 2.2691 4.98052 2.44774 4.88955 2.64514C4.79858 2.84254 4.7503 3.05479 4.7475 3.26969Z" fill="white"/>
</g>
<defs>
<clipPath id="clip0_896_6018">
<rect width="13" height="13" fill="white"/>
</clipPath>
</defs>
</svg>
