<svg width="82" height="25" viewBox="0 0 82 25" fill="none" xmlns="http://www.w3.org/2000/svg">
<path fill-rule="evenodd" clip-rule="evenodd" d="M20.4832 19.6586C20.2527 20.5108 19.9236 20.9535 18.8623 21.1985C16.5118 21.6471 14.1611 21.7625 11.8103 21.7624C9.45977 21.7625 7.1091 21.6471 4.75843 21.1985C3.69736 20.9535 3.36821 20.5108 3.13755 19.6587C2.6726 17.2726 2.55363 14.8863 2.55413 12.5001C2.5535 10.1139 2.6726 7.72763 3.13768 5.34141C3.36821 4.48926 3.69736 4.04654 4.75856 3.80156C7.10923 3.35306 9.45977 3.23761 11.8104 3.23761C14.1612 3.23748 16.5119 3.35306 18.8624 3.80156C19.9238 4.04654 20.2527 4.48951 20.4833 5.34141C20.9485 7.72763 21.0674 10.1139 21.0669 12.5001C21.0675 14.8863 20.9485 17.2726 20.4832 19.6586ZM23.6145 12.4894H23.6141C23.613 9.95782 23.3881 7.42599 22.9332 4.89442C22.6474 3.22115 21.3303 1.76233 19.5139 1.38997C16.9517 0.923251 14.3895 0.69184 11.8273 0.68983V0.689453C11.8215 0.689453 11.816 0.689579 11.8103 0.689579C11.8048 0.689579 11.7993 0.689453 11.7937 0.689453V0.68983C9.23162 0.69184 6.66914 0.923125 4.10692 1.38997C2.29056 1.76233 0.973449 3.22128 0.68764 4.89442C0.232733 7.42599 0.00785522 9.95782 0.00672455 12.4894H0.00634766C0.00634766 12.4929 0.00647329 12.4966 0.00647329 12.5001C0.00647329 12.5036 0.00634766 12.5074 0.00634766 12.5108H0.00672455C0.00785522 15.0423 0.232733 17.5742 0.68764 20.1057C0.973449 21.7787 2.29056 23.2378 4.10692 23.6103C6.66914 24.0768 9.23137 24.3083 11.7937 24.3104V24.3106C11.7993 24.3106 11.8048 24.3106 11.8103 24.3106C11.8161 24.3104 11.8216 24.3107 11.8273 24.3107V24.3101C14.3895 24.3083 16.9517 24.0769 19.5139 23.6102C21.3303 23.2376 22.6475 21.7786 22.9332 20.1056C23.3881 17.5738 23.613 15.0422 23.6141 12.5106H23.6145C23.6145 12.507 23.6144 12.5035 23.6144 12.4999C23.6145 12.4964 23.6145 12.4929 23.6145 12.4894Z" fill="white"/>
<path fill-rule="evenodd" clip-rule="evenodd" d="M17.81 16.4409L13.9087 12.5105L15.6586 10.7474C15.7909 10.652 15.9071 10.5363 16.0008 10.4026L17.4592 8.93346C17.8261 8.5817 18.1173 8.22742 18.1173 7.71887C18.1173 6.9171 17.4674 6.26734 16.6659 6.26734C16.2098 6.26734 15.8381 6.49536 15.5314 6.77815L15.5226 6.7921L13.6759 8.65218L13.6691 8.64539L11.8707 10.4574L10.0725 8.64552L10.0654 8.6523L8.2193 6.79222L8.21026 6.78393C7.85146 6.44335 7.53198 6.26734 7.07569 6.26734C6.27417 6.26734 5.62441 6.9171 5.62441 7.71887C5.62441 8.22742 5.94452 8.57001 6.28246 8.93346L7.74078 10.4026C7.8345 10.5361 7.95071 10.652 8.08312 10.7474L9.8329 12.5105L5.9317 16.4409L5.92894 16.4327C5.72743 16.682 5.62366 17.0222 5.62366 17.3676C5.62366 18.1692 6.27342 18.8192 7.07506 18.8192C7.58726 18.8189 7.96088 18.5301 8.29468 18.1526L9.69156 16.7453C9.87423 16.6315 10.0314 16.4803 10.148 16.2994L11.8707 14.5637L13.5936 16.2994C13.7103 16.4804 13.8674 16.6315 14.0501 16.7455L15.4471 18.1527C15.7692 18.4722 16.1545 18.8193 16.6667 18.8193C17.4682 18.819 18.1181 18.1694 18.1181 17.3678C18.1181 17.0223 18.02 16.6936 17.8183 16.4445L17.81 16.4409ZM81.1956 17.9612C81.1774 17.8192 81.15 17.7047 81.1136 17.617C81.0773 17.5298 81.0317 17.4661 80.9769 17.4259C80.9222 17.3859 80.8626 17.3658 80.7966 17.3658H74.7782V13.3774H79.9774C80.0431 13.3774 80.103 13.3593 80.1577 13.3227C80.2124 13.2864 80.2578 13.2264 80.2943 13.1424C80.3309 13.0587 80.3582 12.9476 80.3763 12.809C80.3945 12.6707 80.4038 12.496 80.4038 12.2845C80.4038 12.0806 80.3946 11.9076 80.3763 11.7655C80.3582 11.6233 80.3307 11.5106 80.2943 11.4268C80.258 11.343 80.2122 11.2811 80.1577 11.2409C80.103 11.2008 80.0431 11.181 79.9774 11.181H74.7782V7.72817H80.753C80.8187 7.72817 80.8766 7.70819 80.9281 7.66824C80.9789 7.62816 81.0224 7.56434 81.0589 7.47691C81.0955 7.38947 81.1227 7.27477 81.1408 7.13268C81.1591 6.99059 81.1684 6.81772 81.1684 6.6137C81.1684 6.3951 81.1592 6.21482 81.1408 6.07274C81.1227 5.93052 81.0955 5.81432 81.0589 5.72298C81.0226 5.63203 80.9789 5.56833 80.9281 5.5319C80.8766 5.49534 80.8187 5.47712 80.753 5.47712H72.7677C72.5276 5.47712 72.3251 5.54836 72.1612 5.69044C71.9972 5.83241 71.9153 6.06382 71.9153 6.38417V18.7099C71.9153 19.0305 71.9972 19.2616 72.1612 19.4037C72.3251 19.5458 72.5275 19.6168 72.7677 19.6168H80.7966C80.8624 19.6168 80.9222 19.597 80.9769 19.5566C81.0317 19.5168 81.0773 19.4527 81.1136 19.3653C81.1501 19.2781 81.1774 19.1633 81.1956 19.0212C81.214 18.879 81.2229 18.7026 81.2229 18.4912C81.223 18.2801 81.214 18.1033 81.1956 17.9612ZM67.2615 6.5691C67.1657 6.46998 66.9979 6.35327 66.7571 6.21884C66.5161 6.08429 66.2136 5.95879 65.849 5.84221C65.4847 5.72537 65.0584 5.62612 64.5702 5.54484C64.0815 5.46356 63.5407 5.42285 62.9458 5.42285C61.8629 5.42285 60.8815 5.58906 60.0003 5.9216C59.1193 6.2544 58.3667 6.73368 57.7447 7.35994C57.1219 7.98621 56.6403 8.74703 56.3006 9.64227C55.9608 10.5375 55.7909 11.5477 55.7909 12.6731C55.7911 13.7628 55.9505 14.7376 56.2687 15.5974C56.5877 16.4575 57.047 17.1864 57.649 17.7842C58.2504 18.3824 58.9844 18.8389 59.8513 19.1536C60.7181 19.4686 61.7003 19.6261 62.7976 19.6261C63.1725 19.6261 63.5458 19.6084 63.9176 19.573C64.2891 19.5375 64.6568 19.4844 65.0212 19.4138C65.3858 19.3432 65.7378 19.2583 66.0775 19.159C66.4171 19.0599 66.7022 18.9644 66.9321 18.8723C67.1617 18.7805 67.314 18.6549 67.3889 18.4957C67.463 18.3363 67.5 18.1506 67.5 17.9384V12.286C67.5 12.1443 67.4818 12.0187 67.4466 11.9091C67.4116 11.7993 67.3602 11.7056 67.293 11.6279C67.2255 11.55 67.148 11.4917 67.0595 11.4526C66.9709 11.4137 66.87 11.3943 66.7569 11.3943H62.118C62.0542 11.3943 61.9976 11.4139 61.9481 11.4526C61.8987 11.4917 61.8556 11.5518 61.8204 11.6333C61.7854 11.7145 61.7586 11.8226 61.741 11.957C61.7236 12.0913 61.7143 12.2578 61.7143 12.4558C61.7144 12.8378 61.7496 13.1087 61.8203 13.2678C61.8913 13.427 61.9902 13.5067 62.1179 13.5067H64.7185V16.8766C64.4569 17.0183 64.1737 17.1245 63.8691 17.1952C63.5652 17.2658 63.2574 17.3012 62.9456 17.3012C62.3091 17.3012 61.7266 17.1987 61.1994 16.9933C60.6724 16.7881 60.2213 16.4837 59.8458 16.0804C59.4709 15.677 59.1787 15.1765 58.9704 14.5783C58.7616 13.9804 58.6568 13.2886 58.6568 12.5031C58.6568 11.7883 58.7596 11.1354 58.9645 10.5445C59.1701 9.95358 59.4637 9.44767 59.8458 9.02643C60.2286 8.60544 60.6879 8.27981 61.2261 8.04978C61.7639 7.81988 62.365 7.7048 63.0309 7.7048C63.6531 7.7048 64.2002 7.76849 64.6708 7.89588C65.1415 8.02327 65.5462 8.16134 65.8858 8.30983C66.2256 8.45858 66.4983 8.59652 66.7033 8.72378C66.909 8.85117 67.0573 8.91487 67.1497 8.91487C67.213 8.91487 67.2676 8.89728 67.3137 8.86198C67.3601 8.82655 67.3989 8.76474 67.4308 8.67605C67.4627 8.58773 67.4875 8.46913 67.5049 8.32051C67.5227 8.17177 67.5317 7.99513 67.5317 7.78972C67.5317 7.43595 67.5103 7.16861 67.4679 6.9882C67.426 6.8078 67.3571 6.66835 67.2615 6.5691ZM44.5063 14.1851L46.4905 8.22001H46.5016L48.4865 14.1851H44.5063ZM48.6055 6.07249C48.562 5.9353 48.5099 5.82675 48.4482 5.74723C48.3869 5.66758 48.2855 5.6079 48.145 5.56833C48.0036 5.52851 47.8064 5.50326 47.5534 5.49233C47.3002 5.4814 46.9605 5.47612 46.5341 5.47612C46.1651 5.47599 45.869 5.48152 45.6445 5.49233C45.4205 5.50326 45.2449 5.52851 45.1186 5.56833C44.9925 5.60803 44.9 5.66595 44.8421 5.7417C44.7842 5.81758 44.7335 5.91708 44.6905 6.03995L40.3628 18.4908C40.2761 18.744 40.222 18.9464 40.1998 19.0982C40.1785 19.2501 40.2039 19.3678 40.276 19.4507C40.3483 19.5339 40.4784 19.5863 40.6666 19.6079C40.8548 19.6296 41.1151 19.6405 41.4475 19.6405C41.7579 19.6404 42.0098 19.6331 42.201 19.6188C42.3925 19.6042 42.5408 19.5771 42.6456 19.5374C42.7504 19.4977 42.8265 19.4436 42.8734 19.3747C42.9209 19.3061 42.9586 19.2212 42.9872 19.1198L43.8769 16.3759H49.1476L50.0912 19.1958C50.12 19.2899 50.1563 19.3659 50.1999 19.4236C50.2436 19.4815 50.3191 19.5266 50.4278 19.5591C50.5359 19.5915 50.6932 19.6134 50.8996 19.6241C51.1053 19.635 51.393 19.6405 51.762 19.6405C52.116 19.6404 52.3945 19.6314 52.5969 19.6134C52.7993 19.5952 52.9399 19.5483 53.0199 19.4723C53.0994 19.3966 53.1286 19.2825 53.1065 19.1306C53.0851 18.9789 53.0305 18.7727 52.9438 18.5124L48.6055 6.07249ZM35.4074 10.9899C35.3052 11.2997 35.1562 11.5654 34.9589 11.7875C34.7624 12.0099 34.5094 12.1828 34.2001 12.3066C33.8903 12.4304 33.5058 12.4922 33.047 12.4922H31.1089V7.69525H32.9811C33.28 7.69525 33.5695 7.71548 33.85 7.75555C34.1305 7.79563 34.3979 7.89211 34.653 8.04501C34.9082 8.1979 35.1229 8.43483 35.298 8.75519C35.4731 9.0758 35.5603 9.48397 35.5603 9.97908C35.5604 10.3434 35.5097 10.6803 35.4074 10.9899ZM37.6254 7.00152C37.3195 6.65566 36.9499 6.3696 36.5164 6.14384C36.0831 5.91809 35.6547 5.76331 35.2324 5.67926C34.8102 5.59572 34.4475 5.54107 34.1456 5.51544C33.8428 5.48994 33.5241 5.477 33.1894 5.477H29.208C28.9165 5.477 28.6814 5.5628 28.5033 5.73391C28.3244 5.90489 28.2351 6.16193 28.2351 6.50428V19.2233C28.2351 19.2961 28.2572 19.3616 28.3009 19.4199C28.3445 19.4782 28.4213 19.5256 28.5306 19.562C28.64 19.5986 28.787 19.6275 28.9732 19.6495C29.1586 19.6712 29.3897 19.6823 29.6668 19.6823C29.9507 19.6821 30.1842 19.6712 30.3665 19.6495C30.5481 19.6275 30.6938 19.5986 30.8032 19.562C30.9126 19.5257 30.9907 19.4782 31.038 19.4199C31.0856 19.3616 31.109 19.2962 31.109 19.2233V14.7104H32.9377C33.8702 14.7104 34.6804 14.601 35.3691 14.3825C36.0576 14.1638 36.6381 13.8454 37.1119 13.4264C37.5857 13.0076 37.9463 12.4919 38.1934 11.8801C38.4415 11.2684 38.5651 10.5653 38.5651 9.77142C38.5651 9.19603 38.4851 8.67692 38.3249 8.21423C38.1643 7.75191 37.9313 7.34751 37.6254 7.00152Z" fill="white"/>
</svg>
