<svg width="82" height="25" viewBox="0 0 82 25" fill="none" xmlns="http://www.w3.org/2000/svg">
<path fill-rule="evenodd" clip-rule="evenodd" d="M20.4832 19.6585C20.2527 20.5107 19.9236 20.9534 18.8623 21.1984C16.5118 21.647 14.1611 21.7625 11.8103 21.7623C9.45977 21.7625 7.1091 21.647 4.75843 21.1984C3.69736 20.9534 3.36821 20.5107 3.13755 19.6587C2.6726 17.2726 2.55363 14.8862 2.55413 12.5C2.5535 10.1138 2.6726 7.72757 3.13768 5.34135C3.36821 4.4892 3.69736 4.04648 4.75856 3.8015C7.10923 3.353 9.45977 3.23755 11.8104 3.23755C14.1612 3.23742 16.5119 3.353 18.8624 3.8015C19.9238 4.04648 20.2527 4.48945 20.4833 5.34135C20.9485 7.72757 21.0674 10.1138 21.0669 12.5C21.0675 14.8862 20.9485 17.2726 20.4832 19.6585ZM23.6145 12.4893H23.6141C23.613 9.95776 23.3881 7.42593 22.9332 4.89436C22.6474 3.22109 21.3303 1.76227 19.5139 1.38991C16.9517 0.92319 14.3895 0.691779 11.8273 0.689769V0.689392C11.8215 0.689392 11.816 0.689518 11.8103 0.689518C11.8048 0.689518 11.7993 0.689392 11.7937 0.689392V0.689769C9.23162 0.691779 6.66914 0.923064 4.10692 1.38991C2.29056 1.76227 0.973449 3.22122 0.68764 4.89436C0.232733 7.42593 0.00785522 9.95776 0.00672455 12.4893H0.00634766C0.00634766 12.4929 0.00647329 12.4965 0.00647329 12.5C0.00647329 12.5035 0.00634766 12.5073 0.00634766 12.5107H0.00672455C0.00785522 15.0423 0.232733 17.5741 0.68764 20.1057C0.973449 21.7787 2.29056 23.2377 4.10692 23.6102C6.66914 24.0767 9.23137 24.3082 11.7937 24.3104V24.3105C11.7993 24.3105 11.8048 24.3105 11.8103 24.3105C11.8161 24.3104 11.8216 24.3106 11.8273 24.3106V24.31C14.3895 24.3082 16.9517 24.0768 19.5139 23.6101C21.3303 23.2375 22.6475 21.7786 22.9332 20.1055C23.3881 17.5737 23.613 15.0421 23.6141 12.5106H23.6145C23.6145 12.5069 23.6144 12.5034 23.6144 12.4999C23.6145 12.4964 23.6145 12.4929 23.6145 12.4893Z" fill="#363636"/>
<path fill-rule="evenodd" clip-rule="evenodd" d="M17.8099 16.4408L13.9086 12.5105L15.6585 10.7474C15.7908 10.6519 15.907 10.5362 16.0007 10.4025L17.459 8.9334C17.826 8.58164 18.1172 8.22736 18.1172 7.71881C18.1172 6.91704 17.4673 6.26728 16.6658 6.26728C16.2096 6.26728 15.838 6.4953 15.5312 6.77809L15.5224 6.79203L13.6758 8.65211L13.669 8.64533L11.8706 10.4573L10.0724 8.64546L10.0653 8.65224L8.21918 6.79216L8.21014 6.78387C7.85134 6.44328 7.53186 6.26728 7.07557 6.26728C6.27405 6.26728 5.62429 6.91704 5.62429 7.71881C5.62429 8.22736 5.94439 8.56995 6.28234 8.9334L7.74065 10.4025C7.83437 10.5361 7.95058 10.6519 8.083 10.7474L9.83277 12.5105L5.93158 16.4408L5.92882 16.4326C5.72731 16.6819 5.62354 17.0221 5.62354 17.3676C5.62354 18.1691 6.27329 18.8191 7.07494 18.8191C7.58713 18.8189 7.96076 18.53 8.29456 18.1525L9.69144 16.7452C9.87411 16.6314 10.0313 16.4803 10.1479 16.2993L11.8706 14.5636L13.5935 16.2993C13.7102 16.4804 13.8673 16.6314 14.0499 16.7455L15.4469 18.1526C15.7691 18.4721 16.1544 18.8192 16.6666 18.8192C17.4681 18.819 18.118 18.1694 18.118 17.3677C18.118 17.0222 18.0198 16.6936 17.8182 16.4445L17.8099 16.4408ZM81.1955 17.9612C81.1773 17.8191 81.1499 17.7046 81.1135 17.617C81.0771 17.5298 81.0315 17.4661 80.9768 17.4259C80.9221 17.3858 80.8624 17.3657 80.7965 17.3657H74.7781V13.3773H79.9773C80.043 13.3773 80.1029 13.3592 80.1575 13.3227C80.2123 13.2864 80.2577 13.2263 80.2942 13.1424C80.3308 13.0586 80.358 12.9475 80.3761 12.809C80.3943 12.6706 80.4037 12.4959 80.4037 12.2845C80.4037 12.0806 80.3945 11.9076 80.3761 11.7655C80.358 11.6233 80.3305 11.5106 80.2942 11.4268C80.2579 11.343 80.2121 11.2811 80.1575 11.2408C80.1029 11.2008 80.043 11.1809 79.9773 11.1809H74.7781V7.7281H80.7529C80.8186 7.7281 80.8765 7.70813 80.928 7.66818C80.9788 7.6281 81.0223 7.56428 81.0588 7.47684C81.0954 7.38941 81.1226 7.27471 81.1407 7.13262C81.1589 6.99053 81.1682 6.81766 81.1682 6.61364C81.1682 6.39504 81.1591 6.21476 81.1407 6.07268C81.1226 5.93046 81.0954 5.81425 81.0588 5.72292C81.0225 5.63196 80.9788 5.56827 80.928 5.53184C80.8765 5.49528 80.8186 5.47706 80.7529 5.47706H72.7676C72.5275 5.47706 72.325 5.5483 72.161 5.69038C71.9971 5.83235 71.9152 6.06376 71.9152 6.38411V18.7098C71.9152 19.0304 71.9971 19.2616 72.161 19.4037C72.325 19.5458 72.5274 19.6167 72.7676 19.6167H80.7965C80.8623 19.6167 80.9221 19.5969 80.9768 19.5566C81.0315 19.5167 81.0771 19.4527 81.1135 19.3652C81.15 19.278 81.1773 19.1632 81.1955 19.0211C81.2138 18.8789 81.2228 18.7025 81.2228 18.4911C81.2229 18.28 81.2138 18.1033 81.1955 17.9612ZM67.2613 6.56904C67.1656 6.46992 66.9978 6.35321 66.7569 6.21878C66.516 6.08423 66.2135 5.95873 65.8489 5.84214C65.4846 5.72531 65.0583 5.62606 64.5701 5.54478C64.0814 5.46349 63.5406 5.42279 62.9457 5.42279C61.8628 5.42279 60.8813 5.589 60.0002 5.92154C59.1191 6.25434 58.3666 6.73362 57.7446 7.35988C57.1217 7.98615 56.6402 8.74697 56.3005 9.64221C55.9607 10.5374 55.7908 11.5476 55.7908 12.673C55.7909 13.7628 55.9504 14.7375 56.2686 15.5973C56.5876 16.4574 57.0469 17.1863 57.6489 17.7842C58.2503 18.3823 58.9843 18.8388 59.8512 19.1535C60.718 19.4685 61.7002 19.626 62.7975 19.626C63.1723 19.626 63.5457 19.6083 63.9174 19.5729C64.2889 19.5375 64.6567 19.4843 65.0211 19.4137C65.3857 19.3431 65.7377 19.2582 66.0774 19.1589C66.417 19.0598 66.702 18.9643 66.9319 18.8723C67.1616 18.7804 67.3139 18.6548 67.3887 18.4956C67.4629 18.3362 67.4999 18.1505 67.4999 17.9383V12.286C67.4999 12.1443 67.4817 12.0186 67.4465 11.9091C67.4115 11.7993 67.3601 11.7056 67.2929 11.6278C67.2254 11.5499 67.1479 11.4916 67.0593 11.4525C66.9708 11.4136 66.8699 11.3942 66.7568 11.3942H62.1179C62.0541 11.3942 61.9974 11.4138 61.9479 11.4525C61.8986 11.4916 61.8555 11.5518 61.8203 11.6332C61.7853 11.7145 61.7585 11.8225 61.7409 11.9569C61.7234 12.0912 61.7141 12.2577 61.7141 12.4557C61.7143 12.8377 61.7494 13.1086 61.8202 13.2678C61.8912 13.4269 61.99 13.5066 62.1178 13.5066H64.7183V16.8765C64.4568 17.0182 64.1736 17.1245 63.869 17.1951C63.5651 17.2657 63.2573 17.3011 62.9454 17.3011C62.309 17.3011 61.7265 17.1986 61.1993 16.9932C60.6723 16.7881 60.2212 16.4837 59.8456 16.0804C59.4708 15.677 59.1786 15.1765 58.9703 14.5782C58.7615 13.9803 58.6567 13.2885 58.6567 12.5031C58.6567 11.7882 58.7594 11.1353 58.9644 10.5445C59.17 9.95352 59.4636 9.44761 59.8456 9.02637C60.2284 8.60538 60.6877 8.27975 61.2259 8.04972C61.7638 7.81981 62.3649 7.70474 63.0307 7.70474C63.653 7.70474 64.2001 7.76843 64.6707 7.89582C65.1413 8.02321 65.5461 8.16128 65.8857 8.30977C66.2255 8.45852 66.4981 8.59646 66.7032 8.72372C66.9088 8.85111 67.0572 8.91481 67.1495 8.91481C67.2129 8.91481 67.2675 8.89722 67.3136 8.86192C67.36 8.82649 67.3988 8.76468 67.4307 8.67598C67.4626 8.58767 67.4874 8.46907 67.5048 8.32045C67.5225 8.17171 67.5316 7.99507 67.5316 7.78966C67.5316 7.43589 67.5102 7.16855 67.4678 6.98814C67.4259 6.80774 67.357 6.66829 67.2613 6.56904ZM44.5062 14.185L46.4904 8.21995H46.5015L48.4864 14.185H44.5062ZM48.6054 6.07242C48.5619 5.93524 48.5098 5.82669 48.4481 5.74717C48.3868 5.66752 48.2854 5.60784 48.1448 5.56827C48.0035 5.52845 47.8063 5.50319 47.5532 5.49226C47.3001 5.48133 46.9604 5.47606 46.534 5.47606C46.165 5.47593 45.8689 5.48146 45.6444 5.49226C45.4204 5.50319 45.2448 5.52845 45.1185 5.56827C44.9924 5.60797 44.8999 5.66589 44.842 5.74164C44.7841 5.81752 44.7333 5.91702 44.6904 6.03989L40.3627 18.4907C40.276 18.744 40.2218 18.9464 40.1997 19.0981C40.1784 19.25 40.2037 19.3677 40.2759 19.4507C40.3482 19.5338 40.4782 19.5862 40.6664 19.6078C40.8546 19.6296 41.1149 19.6405 41.4474 19.6405C41.7578 19.6404 42.0097 19.6331 42.2009 19.6188C42.3923 19.6042 42.5407 19.577 42.6455 19.5373C42.7503 19.4976 42.8264 19.4435 42.8733 19.3747C42.9207 19.3061 42.9584 19.2211 42.9871 19.1197L43.8768 16.3759H49.1475L50.0911 19.1958C50.1199 19.2899 50.1562 19.3659 50.1998 19.4235C50.2435 19.4814 50.319 19.5265 50.4277 19.5591C50.5358 19.5915 50.6931 19.6133 50.8995 19.624C51.1052 19.635 51.3929 19.6405 51.7618 19.6405C52.1159 19.6404 52.3944 19.6313 52.5968 19.6133C52.7992 19.5951 52.9398 19.5483 53.0198 19.4723C53.0993 19.3965 53.1285 19.2824 53.1063 19.1306C53.085 18.9788 53.0303 18.7726 52.9436 18.5123L48.6054 6.07242ZM35.4073 10.9898C35.305 11.2996 35.1561 11.5654 34.9588 11.7875C34.7623 12.0098 34.5093 12.1827 34.2 12.3066C33.8902 12.4303 33.5056 12.4921 33.0468 12.4921H31.1087V7.69519H32.981C33.2799 7.69519 33.5693 7.71542 33.8499 7.75549C34.1304 7.79557 34.3977 7.89205 34.6529 8.04494C34.9081 8.19784 35.1228 8.43477 35.2979 8.75513C35.473 9.07574 35.5602 9.48391 35.5602 9.97902C35.5603 10.3433 35.5096 10.6803 35.4073 10.9898ZM37.6253 7.00146C37.3194 6.6556 36.9498 6.36954 36.5163 6.14378C36.083 5.91802 35.6546 5.76325 35.2323 5.6792C34.8101 5.59566 34.4474 5.54101 34.1455 5.51538C33.8427 5.48988 33.524 5.47694 33.1893 5.47694H29.2078C28.9164 5.47694 28.6813 5.56274 28.5032 5.73385C28.3243 5.90483 28.235 6.16187 28.235 6.50422V19.2233C28.235 19.296 28.2571 19.3616 28.3008 19.4199C28.3444 19.4782 28.4211 19.5255 28.5304 19.562C28.6399 19.5985 28.7869 19.6274 28.973 19.6494C29.1585 19.6711 29.3896 19.6822 29.6666 19.6822C29.9506 19.6821 30.1841 19.6711 30.3664 19.6494C30.5479 19.6274 30.6937 19.5985 30.8031 19.562C30.9125 19.5257 30.9905 19.4782 31.0379 19.4199C31.0855 19.3616 31.1089 19.2961 31.1089 19.2233V14.7104H32.9375C33.8701 14.7104 34.6803 14.601 35.369 14.3825C36.0574 14.1638 36.638 13.8453 37.1117 13.4263C37.5856 13.0076 37.9462 12.4919 38.1933 11.8801C38.4414 11.2684 38.565 10.5652 38.565 9.77135C38.565 9.19597 38.485 8.67686 38.3248 8.21417C38.1641 7.75185 37.9312 7.34745 37.6253 7.00146Z" fill="#363636"/>
</svg>
