<svg width="9" height="9" viewBox="0 0 9 9" fill="none" xmlns="http://www.w3.org/2000/svg">
<path d="M6.73879 5.96101L7.71344 6.93566C7.8717 7.09392 7.8717 7.35052 7.71344 7.50879C6.85778 8.36444 5.50317 8.46071 4.53511 7.73466L4.04279 7.36542C3.13001 6.68084 2.31916 5.86999 1.63458 4.95721L1.26534 4.46489C0.539292 3.49683 0.635562 2.14222 1.49121 1.28656C1.64948 1.1283 1.90608 1.1283 2.06434 1.28656L3.03899 2.26121C3.32428 2.5465 3.32428 3.00905 3.03899 3.29435L2.78744 3.54589C2.71532 3.61802 2.69744 3.7282 2.74305 3.81944C3.27046 4.87425 4.12575 5.72954 5.18056 6.25695C5.2718 6.30256 5.38198 6.28468 5.45411 6.21256L5.70565 5.96101C5.99095 5.67572 6.4535 5.67572 6.73879 5.96101Z" fill="#F3F3F3" stroke="#5E419D"/>
</svg>
