<svg width="13" height="13" viewBox="0 0 13 13" fill="none" xmlns="http://www.w3.org/2000/svg">
<path fill-rule="evenodd" clip-rule="evenodd" d="M2.95455 0C1.3228 0 0 1.3228 0 2.95455V10.0455C0 11.6772 1.3228 13 2.95455 13H10.0455C11.6772 13 13 11.6772 13 10.0455V2.95455C13 1.3228 11.6772 0 10.0455 0H2.95455ZM7.65121 1.48007C7.34096 1.48049 7.03015 1.48091 6.71832 1.48577C6.71015 2.56035 6.71076 3.63531 6.71138 4.71156C6.71173 5.32 6.71207 5.92885 6.71083 6.53828C6.70948 6.74113 6.70969 6.94376 6.70989 7.14629C6.71044 7.69126 6.71099 8.23548 6.68122 8.78136C6.67689 8.93284 6.60142 9.06602 6.52814 9.19535C6.5223 9.20566 6.51647 9.21594 6.5107 9.22621C6.26878 9.62334 5.82393 9.89458 5.35975 9.8996C4.65957 9.96208 4.00367 9.38474 3.90485 8.69785C3.9041 8.6642 3.90292 8.63031 3.90173 8.59631C3.89497 8.40257 3.88808 8.20499 3.96127 8.02445C4.06543 7.7243 4.26467 7.46695 4.52833 7.29204C4.8887 7.03995 5.37066 7.00228 5.78309 7.13664C5.78309 6.87185 5.78758 6.60718 5.79207 6.34253C5.7981 5.98746 5.80412 5.63243 5.7993 5.27719C4.8965 5.10704 3.93228 5.3946 3.24396 5.9983C2.63668 6.51661 2.24545 7.27854 2.17063 8.075C2.16312 8.28259 2.16478 8.49041 2.17562 8.69785C2.26166 9.67733 2.85241 10.5899 3.69193 11.0885C4.19851 11.3892 4.79238 11.5525 5.38687 11.5183C6.35607 11.5019 7.29971 10.9786 7.84339 10.1759C8.18132 9.69366 8.37304 9.11131 8.40546 8.52613C8.4139 7.72226 8.41337 6.91688 8.41284 6.11054C8.41257 5.69507 8.4123 5.27934 8.41325 4.86342C8.62929 5.00563 8.85001 5.14471 9.08693 5.2527C9.63092 5.51264 10.2332 5.63822 10.8327 5.658V3.97247C10.193 3.90058 9.53552 3.68804 9.07072 3.22373C8.60498 2.77072 8.37616 2.11804 8.34342 1.47729C8.11286 1.47944 7.88219 1.47975 7.65121 1.48007Z" fill="white"/>
</svg>
