<svg width="14" height="9" viewBox="0 0 14 9" fill="none" xmlns="http://www.w3.org/2000/svg">
<path d="M8.23898 2.46713C8.23898 2.81799 8.22481 3.14868 8.22279 3.47534C8.2184 3.65352 8.23952 3.83141 8.28552 4.00364C8.31341 4.11359 8.3758 4.21178 8.4636 4.28392C8.4853 4.30092 8.51075 4.31252 8.53785 4.31778C8.56494 4.32304 8.5929 4.3218 8.61942 4.31417C8.71396 4.28409 8.80043 4.23307 8.87237 4.16496C9.04538 4.00605 9.20136 3.82968 9.33781 3.63867C9.8217 2.97115 10.2207 2.24644 10.5257 1.48111C10.5803 1.35206 10.6329 1.22502 10.6835 1.09395C10.7197 0.993781 10.7918 0.910474 10.8859 0.860051C10.9448 0.838443 11.0073 0.828179 11.07 0.829804C11.0984 0.829804 11.1287 0.829804 11.1591 0.829804H13.1827C13.3203 0.829804 13.4579 0.829804 13.5874 0.829804C13.657 0.838738 13.7251 0.857053 13.7898 0.884248C13.8422 0.899506 13.8881 0.931814 13.92 0.976028C13.9519 1.02024 13.968 1.07382 13.9658 1.12823C13.9658 1.26667 13.9383 1.40373 13.8849 1.53152C13.7492 1.85887 13.5782 2.17055 13.3749 2.46109C12.9965 3.03778 12.5655 3.57616 12.1608 4.12664C12.0252 4.31014 11.8977 4.49968 11.7763 4.69124C11.7044 4.79725 11.6715 4.92477 11.6832 5.05218C11.7004 5.17559 11.7572 5.29016 11.8451 5.37884C11.9928 5.53612 12.1425 5.69138 12.3004 5.83858C12.7233 6.21471 13.1201 6.61892 13.4883 7.04843C13.6599 7.25233 13.8079 7.47487 13.9294 7.71183C13.9593 7.77579 13.9797 7.8437 13.9901 7.91347C14.0084 7.99062 14.0012 8.07161 13.9694 8.1443C13.9377 8.217 13.8832 8.2775 13.8141 8.31676C13.6788 8.40191 13.5228 8.44862 13.3628 8.45186C12.7658 8.46799 12.1689 8.46396 11.5739 8.49823C11.1913 8.5168 10.816 8.38833 10.5257 8.13931C10.3064 7.95969 10.1032 7.76132 9.91859 7.54649C9.71622 7.3267 9.52803 7.10489 9.3115 6.89518C9.2195 6.80517 9.11528 6.72847 9.00188 6.66733C8.92917 6.62298 8.84297 6.60592 8.75877 6.61922C8.67457 6.63253 8.59789 6.67533 8.54252 6.73992C8.4423 6.86027 8.37224 7.00265 8.33814 7.1553C8.27322 7.38797 8.2372 7.6277 8.23088 7.86911C8.22782 7.9292 8.22174 7.98909 8.21267 8.04857C8.20129 8.12484 8.16873 8.19642 8.11866 8.25521C8.0686 8.314 8.00303 8.35767 7.92936 8.38128C7.83128 8.42218 7.72607 8.44342 7.61975 8.44379C7.35263 8.44379 7.08551 8.44379 6.8103 8.44379C6.3388 8.43836 5.87208 8.3489 5.43221 8.17964C4.63791 7.88148 3.9272 7.39738 3.36002 6.76815C2.79718 6.15116 2.29568 5.48126 1.86254 4.76786C1.17649 3.65958 0.567961 2.50546 0.0412767 1.31374C0.00690089 1.23514 -0.00634977 1.14897 0.00282788 1.06371C0.00477103 1.03183 0.0154097 1.00109 0.0335968 0.974794C0.0517838 0.948499 0.0768293 0.92765 0.106033 0.914494C0.205816 0.864288 0.316006 0.838047 0.427789 0.83787H2.43927C2.55855 0.84592 2.67292 0.888317 2.76848 0.959909C2.86404 1.0315 2.93667 1.12921 2.97756 1.24115C3.1513 1.69884 3.36036 2.14244 3.60286 2.56796C3.86539 3.04166 4.16089 3.49646 4.48718 3.92904C4.59786 4.08904 4.73467 4.22945 4.8919 4.34442C4.94198 4.38613 5.00348 4.41189 5.06843 4.41836C5.13338 4.42483 5.19878 4.41172 5.25616 4.38071C5.3189 4.3433 5.36786 4.28673 5.39579 4.2194C5.46928 4.05115 5.51441 3.87197 5.52935 3.68908C5.57352 3.26305 5.58232 2.83411 5.55565 2.40664C5.55073 2.15149 5.52433 1.8972 5.47673 1.64645C5.46459 1.58394 5.44233 1.52345 5.43019 1.46094C5.41559 1.40281 5.38848 1.34854 5.35075 1.30188C5.31301 1.25523 5.26554 1.2173 5.21164 1.19074C5.07274 1.10471 4.91527 1.05287 4.75227 1.03951C4.70573 1.03951 4.68954 1.01531 4.70978 0.974986C4.72711 0.934844 4.75029 0.897473 4.77858 0.864083C4.92658 0.703707 5.1264 0.600223 5.34317 0.571703C5.65722 0.518 5.97571 0.494367 6.29428 0.501129C6.64841 0.501129 7.00457 0.501129 7.36073 0.523309C7.51527 0.533073 7.66846 0.558064 7.81806 0.597917C7.93719 0.621508 8.04482 0.684554 8.12344 0.776806C8.20206 0.869058 8.24706 0.985093 8.25112 1.10605C8.26834 1.30047 8.27442 1.49571 8.26933 1.69081C8.26528 1.95496 8.2491 2.22113 8.23898 2.46713Z" fill="white"/>
</svg>
