<svg width="141" height="47" viewBox="0 0 141 47" fill="none" xmlns="http://www.w3.org/2000/svg">
<path d="M43.3884 19.5857V26.2735H46.0332C44.3003 38.9252 32.6389 47.7768 19.9867 46.0437C7.33457 44.3106 -1.51676 32.6495 0.216188 19.9979C0.902069 14.9899 3.21024 10.3444 6.78768 6.77314C7.41983 6.77723 8.04527 6.90684 8.6272 7.15405C9.1265 7.39979 9.52828 7.80703 9.76771 8.30965C10.1216 9.51966 10.267 10.7815 10.1981 12.0403V28.824C10.1981 31.6852 10.5535 34.0029 11.465 35.6959C12.5483 37.5449 14.1899 39.0027 16.1541 39.8599C17.7761 40.6553 20.0737 41.0544 23.047 41.0573C26.6111 41.0573 29.4238 40.304 31.4855 38.7973C33.2938 37.6218 34.6623 35.8808 35.3771 33.8458C35.91 32.0495 36.1763 29.1295 36.1757 25.0849V12.0038C36.1211 11.019 36.2327 10.0325 36.5051 9.08492C36.7518 8.35675 37.245 7.7374 37.8993 7.33367C38.3887 7.04989 38.9321 6.87144 39.4942 6.80971C42.9519 10.2768 45.22 14.7518 45.9719 19.5901H43.3875L43.3884 19.5857ZM34.048 12.0038V26.0445C34.048 29.7011 33.7236 32.2657 33.0751 33.7381C32.4657 35.1629 31.4414 36.3708 30.1353 37.2046C28.7067 38.075 27.0563 38.5115 25.3844 38.4612C23.975 38.5153 22.5787 38.1721 21.3547 37.4711C20.3602 36.8875 19.5619 36.0212 19.0617 34.9827C18.596 33.9836 18.2143 31.9029 18.2143 28.8217V12.0403C18.0932 6.39574 13.1168 5.83754 13.1168 5.83754L7.81577 5.81647C16.5485 -1.9357 29.6971 -1.93921 38.4337 5.80828H37.1419C37.1419 5.80828 34.048 5.91828 34.048 12.0038Z" fill="white"/>
<path d="M137.679 31.8738C135.465 33.8316 132.158 34.8728 127.294 34.8728H116.329V16.7197H122.527V30.0957L126.889 30.0155C129.895 30.0155 131.943 29.4597 133.033 28.3474C134.123 27.2353 134.668 25.3361 134.667 22.6498C134.667 19.9635 134.123 18.0643 133.033 16.9523C131.943 15.84 129.895 15.2844 126.889 15.285H122.527H113.945L116.329 10.5078H127.294C132.159 10.5078 135.465 11.4671 137.679 13.4267C139.893 15.3859 141 18.4589 141 22.6507C141 26.8424 139.893 29.9169 137.679 31.8738ZM92.0156 34.8758H90.5854V10.5093H112.992L110.608 15.2864H96.7832V20.0633H108.227C109.261 20.0633 111.088 20.5814 111.088 22.4523C111.088 24.1243 110.06 24.8405 108.227 24.8405H96.7832V30.0957H108.227C111.764 30.0957 112.995 31.4789 112.995 34.3945V34.8758H92.0156ZM80.5737 29.1431V16.7197L74.463 33.281C74.2937 33.7096 74.0087 34.0827 73.6399 34.3585C73.1453 34.671 72.5777 34.8483 71.9931 34.8728H70.0864C69.5985 34.8445 69.1313 34.6645 68.7503 34.3585C68.3812 34.0829 68.0959 33.7096 67.9272 33.281L61.9837 16.7197V29.1431C61.9837 32.746 61.1203 34.8758 56.2637 34.8758H55.7869L55.7959 26.2766H58.1707V19.5859H55.8041L55.8123 12.1227L55.7869 10.5093H63.4142C64.7194 10.5093 65.9589 11.1827 66.24 12.0885L71.1963 26.5759L76.1522 12.0885C76.436 11.1827 77.6168 10.5093 79.1459 10.5093H86.7738V34.8758H86.2985C81.6164 34.8758 80.5737 33.2009 80.5737 29.1399V29.1431Z" fill="white"/>
<path d="M57.2138 25.3189H53.3969V29.6177H48.6296V25.3189H44.3418V20.5408H48.6326V16.7197H53.3999V20.5408H57.217V25.3189H57.2138Z" fill="white"/>
</svg>
