<svg width="13" height="13" viewBox="0 0 13 13" fill="none" xmlns="http://www.w3.org/2000/svg">
<path fill-rule="evenodd" clip-rule="evenodd" d="M10.933 2.106C11.7122 2.14988 12.0949 2.26525 12.4475 2.8925C12.8147 3.51894 13 4.59794 13 6.49837V6.50081V6.50487C13 8.39637 12.8147 9.4835 12.4483 10.1034C12.0957 10.7307 11.713 10.8444 10.9338 10.8973C10.1546 10.9419 8.19731 10.9688 6.50163 10.9688C4.80269 10.9688 2.84456 10.9419 2.06619 10.8964C1.28863 10.8436 0.905937 10.7299 0.550062 10.1026C0.186875 9.48269 0 8.39556 0 6.50406V6.50244V6.5V6.49756C0 4.59794 0.186875 3.51894 0.550062 2.8925C0.905937 2.26444 1.28944 2.14988 2.067 2.10519C2.84456 2.05319 4.80269 2.03125 6.50163 2.03125C8.19731 2.03125 10.1546 2.05319 10.933 2.106ZM8.9375 6.5L4.875 4.0625V8.9375L8.9375 6.5Z" fill="#5E419D"/>
</svg>
